<svg xmlns="http://www.w3.org/2000/svg" width="666.667" height="666.667" viewBox="0 0 500 500" preserveAspectRatio="xMidYMid meet" xmlns:v="https://vecta.io/nano"><path d="M220.5 37.5c-46.1 6.1-88.1 26.2-121.7 58.4C64.2 129 43.5 168 34.5 216.5c-2.6 13.8-3.2 48.8-1.1 64 9.9 71.3 52.7 131.8 116.7 164.7 19 9.8 39.5 16.5 64.4 20.9 17.2 3.1 49.8 3.1 67 0 33.9-6.1 59.6-16.1 86-33.5 52.1-34.5 85.9-88.4 95-151.1 2.1-14.6 2.1-43.3 0-58.5-5.2-37.2-19.3-71.2-42.1-101.7-7.3-9.7-24.4-27.4-34.6-35.9-30.5-25.5-69.7-42.4-110.8-48-12.9-1.7-40.9-1.6-54.5.1zM233 237v110h-14-14v-10.7-10.7l-4.7 4.5c-9.4 9-16.9 13.6-28.3 17.5-7.7 2.6-33.5 2.7-43 .1-20.3-5.5-37.7-20.2-47.6-40.2-5.2-10.6-7.3-18.3-8.2-30.3-1.4-17.1 1-31.6 7.3-45 7.7-16.2 20.2-29.2 35.6-36.8 10.7-5.3 20.2-7.4 33.4-7.4 19.9 0 34.4 5.5 48.1 18.3l7.4 6.9v-43.1V127h14 14v110zm70-47l.9 63c.6 0 16.4-14 35.2-31l34.3-31h18.3c10.1 0 18.3.3 18.2.7 0 .5-16.2 15.2-35.9 32.8-30.9 27.5-35.7 32.2-34.6 33.5l73 87.7c.6 1-3.1 1.3-17.3 1.3h-17.9L348 311l-29.8-36c-.4 0-4 3-8 6.6l-7.2 6.6v29.4V347h-13.5H276V237 127h13.5H303v63zm-161.5 24.2c-17.9 3.4-33.9 19.5-39 39.3-1.9 7.6-1.9 23.4 0 31 7.3 28.4 32.2 44.4 61.3 39.5 20.8-3.5 37.5-20.6 41.7-42.6.8-4.2 1.5-9.7 1.5-12.4 0-7.8-2.7-19.5-6-26.6-4.1-8.5-14.1-19.1-22-23.3-10.2-5.4-24.7-7.4-37.5-4.9z"/></svg>