<svg version="1.1" xmlns="http://www.w3.org/2000/svg" viewBox="0 0 1220.2794189453125 466.7852478027344" width="1220.2794189453125" height="466.7852478027344">
  <!-- svg-source:excalidraw -->
  
  <defs>
    <style>
      @font-face {
        font-family: "Virgil";
        src: url("https://excalidraw.com/Virgil.woff2");
      }
      @font-face {
        font-family: "Cascadia";
        src: url("https://excalidraw.com/Cascadia.woff2");
      }
    </style>
  </defs>
  <rect x="0" y="0" width="1220.2794189453125" height="466.7852478027344" fill="#ffffff"></rect><g stroke-linecap="round"><g transform="translate(977.1446858047084 166.0937898275294) rotate(0 38.52047977725795 41.51454676291226)" fill-rule="evenodd"><path d="M0.73 1.06 L-0.31 83.1 L0.44 84.2 L18.64 91.15 L42.66 89.93 L63.34 88.67 L77.19 85.13 L76.39 -0.87 L69.22 -5.94 L36.38 -8.53 L7.83 -3.62 L1.99 -3.48 L-1.24 1.92" stroke="none" stroke-width="0" fill="#ced4da" fill-rule="evenodd"></path><path d="M-0.48 0.66 C-0.56 13.35, 0.36 61.26, 0.51 75.13 C0.66 89.01, -0.15 81.69, 0.41 83.92 C0.98 86.14, 1.11 87.54, 3.9 88.5 C6.68 89.46, 10.72 89.37, 17.1 89.69 C23.48 90.01, 34.43 90.55, 42.17 90.41 C49.91 90.27, 58.06 89.45, 63.55 88.84 C69.05 88.22, 72.91 87.49, 75.17 86.72 C77.43 85.95, 76.6 85.86, 77.1 84.23 C77.61 82.6, 78.1 89.99, 78.2 76.93 C78.29 63.88, 78.07 18.72, 77.67 5.89 C77.26 -6.94, 76.99 1.53, 75.76 -0.04 C74.54 -1.61, 72.75 -2.46, 70.3 -3.54 C67.86 -4.61, 66.57 -5.66, 61.11 -6.49 C55.65 -7.32, 44.81 -8.5, 37.53 -8.52 C30.24 -8.53, 23.21 -7.41, 17.41 -6.56 C11.61 -5.72, 5.52 -4.72, 2.74 -3.46 C-0.05 -2.19, 1.18 0.57, 0.7 1.02 C0.21 1.46, 0.07 -0.52, -0.17 -0.79 M1.47 -0.03 C1.16 12.93, -0.04 62.41, -0.31 76.63 C-0.58 90.86, -0.88 83.67, -0.14 85.32 C0.59 86.96, 0.92 85.78, 4.1 86.49 C7.28 87.21, 12.87 88.62, 18.94 89.6 C25.01 90.59, 32.94 92.27, 40.51 92.42 C48.07 92.58, 58.71 91.51, 64.32 90.54 C69.93 89.57, 72.28 87.79, 74.15 86.6 C76.03 85.42, 75.29 85.04, 75.58 83.42 C75.87 81.79, 75.44 89.63, 75.91 76.84 C76.38 64.05, 78.12 19.52, 78.41 6.66 C78.7 -6.2, 79.07 1.47, 77.65 -0.33 C76.23 -2.12, 72.77 -3.03, 69.9 -4.12 C67.03 -5.21, 65.75 -5.99, 60.42 -6.86 C55.1 -7.74, 45.03 -9.67, 37.96 -9.38 C30.89 -9.1, 23.5 -6.25, 17.99 -5.16 C12.47 -4.07, 7.88 -3.4, 4.85 -2.83 C1.81 -2.26, 0.88 -2.03, -0.2 -1.72 C-1.28 -1.4, -1.57 -1.4, -1.64 -0.95" stroke="#000000" stroke-width="1" fill="none"></path></g></g><g stroke-linecap="round"><g transform="translate(977.6686152429834 223.22007348525932) rotate(0 38.576773012457124 4.311757083165986)"><path d="M0.66 0.25 C1.15 0.97, 0.25 2.82, 1.96 3.81 C3.68 4.81, 7.36 5.61, 10.96 6.2 C14.55 6.79, 18.69 6.84, 23.51 7.35 C28.32 7.87, 33.61 9.29, 39.84 9.28 C46.08 9.27, 55.33 8.34, 60.92 7.3 C66.51 6.26, 70.58 4.3, 73.36 3.07 C76.14 1.83, 76.79 0.28, 77.6 -0.11 M-0.45 -0.66 C-0.04 -0.27, -0.81 0.55, 0.98 1.9 C2.77 3.26, 6.99 6.45, 10.27 7.48 C13.55 8.51, 15.43 8.26, 20.64 8.11 C25.86 7.96, 34.71 6.89, 41.56 6.6 C48.4 6.31, 56.42 7.19, 61.73 6.38 C67.03 5.57, 70.88 2.85, 73.39 1.73 C75.9 0.62, 76.17 -0.01, 76.8 -0.3" stroke="#000000" stroke-width="1" fill="none"></path></g></g><g stroke-linecap="round"><g transform="translate(976.6367579204796 194.25601815003625) rotate(0 38.19263185813986 3.4618534534839682)"><path d="M0.25 -0.07 C0.74 0.42, 0.69 2.34, 2.43 3.57 C4.18 4.8, 7.5 6.73, 10.73 7.32 C13.96 7.91, 16.62 7.16, 21.81 7.11 C27 7.06, 35.11 7.21, 41.86 7.01 C48.61 6.81, 56.86 6.48, 62.31 5.89 C67.76 5.3, 72.03 4.34, 74.55 3.48 C77.08 2.61, 76.83 1.22, 77.46 0.69 M-1.07 -1.15 C-0.67 -0.51, -0.13 4.07, 1.7 5.19 C3.53 6.3, 6.59 5.09, 9.92 5.52 C13.26 5.94, 16.54 7.52, 21.71 7.74 C26.89 7.95, 33.95 6.77, 40.97 6.8 C48 6.82, 58.14 8.64, 63.85 7.9 C69.55 7.16, 73.08 3.52, 75.21 2.36 C77.33 1.19, 76.24 1.43, 76.58 0.91" stroke="#000000" stroke-width="1" fill="none"></path></g></g><g stroke-linecap="round" transform="translate(975.5788089383975 158.9615212018478) rotate(0 38.29876800932743 7.745637696423984)"><path d="M52.17 1.53 C59.68 2.11, 68.22 3, 72.17 4.46 C76.12 5.91, 77.57 8.77, 75.87 10.26 C74.16 11.76, 68.46 12.61, 61.92 13.41 C55.39 14.21, 44.96 15.06, 36.66 15.05 C28.36 15.04, 18.1 14.49, 12.14 13.35 C6.18 12.2, 1.96 9.73, 0.89 8.18 C-0.18 6.64, 1.33 5.52, 5.71 4.06 C10.1 2.6, 19.27 -0.06, 27.21 -0.58 C35.16 -1.09, 48.79 0.61, 53.4 0.96 C58 1.31, 54.89 1.58, 54.84 1.51 M51.42 1.25 C58.88 1.33, 66.76 1.97, 70.74 3.18 C74.73 4.4, 76.67 6.58, 75.35 8.54 C74.03 10.49, 68.93 13.82, 62.84 14.92 C56.75 16.03, 46.85 15.14, 38.83 15.17 C30.8 15.2, 20.95 15.93, 14.71 15.09 C8.46 14.25, 3.1 11.86, 1.35 10.14 C-0.41 8.42, 0.21 6.51, 4.17 4.77 C8.14 3.03, 17.66 0.25, 25.15 -0.29 C32.65 -0.83, 44.94 1.31, 49.17 1.51 C53.39 1.72, 50.52 1.09, 50.49 0.92" stroke="none" stroke-width="0" fill="#fff"></path><path d="M40.21 -0.74 C48.18 -1.04, 59.62 0.07, 65.68 1.18 C71.74 2.29, 75.81 4.05, 76.56 5.92 C77.31 7.79, 74.73 10.7, 70.19 12.4 C65.64 14.09, 57.02 15.58, 49.3 16.08 C41.58 16.58, 31.32 16.28, 23.87 15.4 C16.43 14.53, 8.53 12.38, 4.64 10.83 C0.75 9.29, -1.15 7.62, 0.51 6.13 C2.18 4.64, 6.83 2.92, 14.62 1.89 C22.4 0.85, 40.8 0.18, 47.24 -0.08 C53.68 -0.35, 53.55 0.07, 53.28 0.28 M30.7 0.01 C38.06 -0.76, 47.42 -0.93, 54.41 -0.07 C61.41 0.8, 69.11 3.55, 72.68 5.21 C76.24 6.87, 78.08 8.46, 75.81 9.87 C73.55 11.29, 66.3 12.67, 59.1 13.7 C51.9 14.74, 40.66 16.01, 32.63 16.1 C24.6 16.2, 16.55 15.59, 10.92 14.28 C5.29 12.97, -0.42 10.03, -1.16 8.23 C-1.89 6.44, 1.4 4.91, 6.52 3.5 C11.63 2.09, 25.66 0.09, 29.53 -0.21 C33.41 -0.51, 29.73 1.6, 29.75 1.68" stroke="#000000" stroke-width="1" fill="none"></path></g><g stroke-linecap="round" transform="translate(1012.07079604362 183.4381888817514) rotate(0 5.61305157708091 6.0918792422278045)"><path d="M4.76 0.3 C5.89 -0.04, 6.85 0.05, 7.96 0.55 C9.07 1.05, 10.96 2.23, 11.41 3.33 C11.86 4.43, 11.11 5.95, 10.66 7.13 C10.21 8.31, 9.58 9.5, 8.7 10.43 C7.81 11.36, 6.6 12.71, 5.36 12.72 C4.13 12.73, 2.12 11.34, 1.31 10.49 C0.5 9.64, 0.76 8.99, 0.52 7.62 C0.28 6.25, -0.84 3.55, -0.13 2.28 C0.57 1.01, 3.79 0.25, 4.77 0 C5.76 -0.26, 5.97 0.52, 5.8 0.74 M7.29 -0.09 C8.1 -0.31, 8.71 0.35, 9.31 1.2 C9.91 2.05, 10.54 3.65, 10.89 5 C11.24 6.35, 12.15 8.09, 11.4 9.3 C10.66 10.5, 7.63 11.77, 6.43 12.23 C5.23 12.68, 5.09 12.73, 4.22 12.01 C3.35 11.29, 1.76 9.06, 1.22 7.92 C0.68 6.78, 0.89 6.53, 0.99 5.16 C1.09 3.79, 0.74 0.5, 1.83 -0.28 C2.92 -1.07, 6.72 0.39, 7.55 0.45 C8.38 0.5, 7.1 -0.21, 6.79 0.02" stroke="none" stroke-width="0" fill="#868e96"></path><path d="M4.68 0.93 C5.52 0.94, 7.21 0.85, 8.12 1.5 C9.03 2.16, 9.66 3.58, 10.13 4.86 C10.6 6.15, 11.17 7.9, 10.92 9.21 C10.66 10.52, 9.68 12.15, 8.6 12.71 C7.52 13.26, 5.77 13.21, 4.42 12.55 C3.07 11.88, 1.19 10.12, 0.5 8.73 C-0.2 7.34, -0.02 5.41, 0.27 4.22 C0.57 3.03, 1.28 2.24, 2.25 1.58 C3.23 0.91, 5.35 0.54, 6.11 0.23 C6.87 -0.08, 6.75 -0.3, 6.83 -0.31 M4.86 -0.96 C5.69 -1.51, 6.78 -0.72, 7.9 0.31 C9.02 1.35, 11.11 3.92, 11.57 5.25 C12.03 6.58, 11.32 7.45, 10.65 8.28 C9.98 9.12, 8.5 9.58, 7.54 10.27 C6.58 10.96, 5.76 12.72, 4.88 12.41 C4 12.1, 3.06 9.71, 2.25 8.41 C1.44 7.12, 0.08 5.69, 0.03 4.62 C-0.01 3.55, 1.2 2.72, 1.96 1.99 C2.73 1.26, 3.9 0.63, 4.64 0.23 C5.38 -0.17, 6.43 -0.41, 6.39 -0.42" stroke="#000000" stroke-width="1" fill="none"></path></g><g stroke-linecap="round" transform="translate(1012.4219378275536 209.6548031688165) rotate(0 5.61305157708091 6.0918792422278045)"><path d="M5.23 0.33 C6.49 0.16, 8.07 1.41, 9.07 2.06 C10.08 2.7, 11 3.14, 11.24 4.19 C11.48 5.24, 11.13 7.13, 10.5 8.36 C9.87 9.58, 8.45 11.04, 7.46 11.54 C6.47 12.03, 5.69 11.6, 4.58 11.33 C3.46 11.06, 1.41 11.07, 0.75 9.92 C0.1 8.78, 0.58 5.81, 0.63 4.48 C0.68 3.15, 0.25 2.61, 1.07 1.96 C1.9 1.31, 4.65 1.01, 5.6 0.57 C6.56 0.13, 6.67 -0.75, 6.8 -0.7 M8.05 0.19 C8.78 0.49, 9.62 1.91, 9.95 3.43 C10.29 4.95, 10.37 8.06, 10.05 9.31 C9.74 10.56, 8.89 10.23, 8.05 10.91 C7.22 11.59, 6.05 13.38, 5.05 13.4 C4.05 13.42, 2.94 12.09, 2.03 11.04 C1.12 9.98, -0.43 8.64, -0.41 7.06 C-0.4 5.48, 1.54 2.51, 2.15 1.55 C2.75 0.58, 2.13 1.35, 3.21 1.27 C4.28 1.19, 7.79 1.25, 8.58 1.07 C9.38 0.88, 7.91 0.07, 7.99 0.14" stroke="none" stroke-width="0" fill="#868e96"></path><path d="M8.9 -0.4 C10.09 0.01, 10.53 1.12, 10.89 2.52 C11.25 3.92, 11.36 6.43, 11.06 8.01 C10.76 9.58, 9.91 11.19, 9.09 11.97 C8.26 12.76, 7.23 13.04, 6.1 12.73 C4.97 12.41, 3.43 11.05, 2.33 10.07 C1.22 9.09, -0.16 8.04, -0.55 6.86 C-0.94 5.68, -0.78 4.15, 0.01 3 C0.79 1.84, 2.7 0.34, 4.17 -0.08 C5.64 -0.5, 8.1 0.17, 8.82 0.48 C9.54 0.8, 8.64 1.68, 8.48 1.82 M6.32 -0.6 C7.08 -0.17, 8.66 2.14, 9.6 3.38 C10.54 4.62, 12.06 5.71, 11.97 6.82 C11.89 7.94, 10.32 9.09, 9.07 10.09 C7.83 11.09, 5.61 12.5, 4.53 12.84 C3.45 13.18, 3.54 13.02, 2.6 12.12 C1.66 11.22, -0.6 8.83, -1.1 7.42 C-1.59 6, -1.15 4.86, -0.37 3.63 C0.42 2.4, 2.32 0.37, 3.63 0.03 C4.95 -0.3, 7 1.66, 7.51 1.6 C8.02 1.54, 6.84 0.06, 6.71 -0.31" stroke="#000000" stroke-width="1" fill="none"></path></g><g stroke-linecap="round" transform="translate(1013.07079604362 238.4235297401229) rotate(357.5021844865888 5.61305157708091 6.0918792422278045)"><path d="M4.22 0.43 C5.27 0.01, 7.63 0.18, 8.62 0.63 C9.6 1.08, 9.78 2.06, 10.12 3.12 C10.46 4.17, 10.86 5.59, 10.66 6.98 C10.46 8.36, 9.9 10.61, 8.92 11.45 C7.94 12.28, 5.89 12.03, 4.78 11.99 C3.68 11.95, 3.23 12.15, 2.29 11.2 C1.34 10.24, -0.7 7.66, -0.89 6.25 C-1.09 4.84, 0.16 3.63, 1.14 2.72 C2.12 1.8, 4.5 1.06, 4.99 0.74 C5.49 0.43, 4.14 0.65, 4.12 0.8 M7.08 -0.46 C7.97 -0.23, 9.25 0.99, 10.16 2.17 C11.07 3.35, 12.74 5.16, 12.52 6.62 C12.31 8.08, 9.82 9.94, 8.87 10.96 C7.92 11.98, 7.85 12.85, 6.84 12.74 C5.83 12.63, 3.81 11.08, 2.8 10.31 C1.79 9.53, 1.26 9.51, 0.78 8.09 C0.3 6.68, -0.74 3.04, -0.06 1.82 C0.61 0.59, 3.52 1, 4.85 0.73 C6.19 0.47, 7.61 0.07, 7.95 0.22 C8.29 0.37, 6.93 1.42, 6.88 1.65" stroke="none" stroke-width="0" fill="#868e96"></path><path d="M3.13 0.42 C4.17 -0.14, 5.63 0.01, 6.94 0.56 C8.26 1.1, 10.19 2.35, 11.03 3.69 C11.86 5.02, 12.22 7.22, 11.95 8.55 C11.69 9.89, 10.64 11.2, 9.45 11.71 C8.27 12.21, 6.11 11.97, 4.85 11.59 C3.59 11.22, 2.65 10.27, 1.91 9.45 C1.17 8.64, 0.61 7.83, 0.41 6.73 C0.2 5.62, -0.06 4.07, 0.68 2.83 C1.42 1.59, 3.82 -0.2, 4.84 -0.72 C5.87 -1.23, 6.76 -0.58, 6.81 -0.26 M7.14 -0.16 C8.33 0.6, 10.63 3.09, 11.27 4.35 C11.9 5.61, 11.45 6.48, 10.95 7.39 C10.46 8.29, 9.17 8.93, 8.3 9.79 C7.43 10.65, 6.66 12.68, 5.75 12.57 C4.83 12.46, 3.77 10.31, 2.82 9.14 C1.87 7.98, 0.27 6.65, 0.04 5.58 C-0.2 4.51, 0.78 3.59, 1.4 2.72 C2.02 1.86, 2.45 0.85, 3.77 0.4 C5.09 -0.05, 8.75 0.04, 9.33 0.02 C9.92 -0.01, 7.77 -0.13, 7.26 0.25" stroke="#000000" stroke-width="1" fill="none"></path></g><g transform="translate(954.9954444915902 260.0136713389657) rotate(0 60.29874496153468 11.797580535952449)"><text x="60.29874496153468" y="16.595161071904883" font-family="Virgil, Segoe UI Emoji" font-size="17.4778970902999px" fill="#000000" text-anchor="middle" style="white-space: pre;" direction="ltr">Relational DB</text></g><g stroke-linecap="round" transform="translate(522.4188229507888 113.47811156817153) rotate(0 116.79531889491432 108.31638190828394)"><path d="M-0.8 -0.23 L234.71 0.23 L232.48 217.07 L0.21 217.28" stroke="none" stroke-width="0" fill="#eeeeee"></path><path d="M-1.08 0.48 C67.55 2.7, 136.32 1.73, 234.77 0.04 M-0.38 -0.58 C85.13 -1.7, 169.62 -1.88, 233.59 0.51 M233.31 1.56 C234.01 64.34, 235.21 130.41, 235.1 218.3 M234.02 -0.42 C235.39 48.37, 235.28 96.38, 234.25 216.05 M234.47 217.3 C175.47 216.03, 114.9 217.06, -1.31 216.01 M233.96 216.97 C156.77 215.99, 79.12 215.84, -0.37 216.41 M1.12 216.19 C0.94 155.07, 1.44 93.58, -1.41 0.28 M-0.2 216.91 C0.09 157.51, -0.74 98, 0.44 0.79" stroke="#000000" stroke-width="1" fill="none"></path></g><g transform="translate(528.3730901765393 183.30189244562166) rotate(0 111.58266789867855 44.514362193621764)"><text x="111.58266789867854" y="20.676241462414506" font-family="Virgil, Segoe UI Emoji" font-size="23.740993169931603px" fill="#000000" text-anchor="middle" style="white-space: pre;" direction="ltr">Application</text><text x="111.58266789867854" y="50.35248292482901" font-family="Virgil, Segoe UI Emoji" font-size="23.740993169931603px" fill="#000000" text-anchor="middle" style="white-space: pre;" direction="ltr">server</text><text x="111.58266789867854" y="80.02872438724351" font-family="Virgil, Segoe UI Emoji" font-size="23.740993169931603px" fill="#000000" text-anchor="middle" style="white-space: pre;" direction="ltr">(3 worker threads)</text></g><g transform="translate(160.35583940138366 265.6186352621148) rotate(0 45.20782026658526 19.827991344993535)"><text x="0" y="27.655982689987077" font-family="Virgil, Segoe UI Emoji" font-size="31.724786151989658px" fill="#000000" text-anchor="start" style="white-space: pre;" direction="ltr">Users</text></g><g stroke-linecap="round" transform="translate(224.5078253404235 158.92842794220655) rotate(0 15.664385704448136 13.706337491392162)"><path d="M3.86 4.68 C3.86 4.68, 3.86 4.68, 3.86 4.68 M3.86 4.68 C3.86 4.68, 3.86 4.68, 3.86 4.68 M2.02 18.98 C7.7 12.45, 13.38 5.92, 17.11 1.62 M2.02 18.98 C5.28 15.24, 8.53 11.49, 17.11 1.62 M6.75 25.74 C12.69 18.9, 18.64 12.06, 25.77 3.85 M6.75 25.74 C11.81 19.92, 16.86 14.1, 25.77 3.85 M16.06 27.21 C20.74 21.83, 25.42 16.45, 31.15 9.86 M16.06 27.21 C20.07 22.6, 24.08 17.99, 31.15 9.86 M5.52 24.14 C5.52 24.14, 5.52 24.14, 5.52 24.14 M5.52 24.14 C5.52 24.14, 5.52 24.14, 5.52 24.14 M19.82 25.97 C14.3 21.17, 8.78 16.37, 1.71 10.23 M19.82 25.97 C15.46 22.18, 11.1 18.39, 1.71 10.23 M28.09 22.56 C22.82 17.98, 17.56 13.4, 5.45 2.88 M28.09 22.56 C23.05 18.18, 18.01 13.8, 5.45 2.88 M31.83 15.21 C27.72 11.64, 23.62 8.07, 13.72 -0.54 M31.83 15.21 C25.97 10.12, 20.11 5.02, 13.72 -0.54" stroke="#ced4da" stroke-width="1" fill="none"></path><path d="M31.33 13.71 C31.33 14.5, 31.25 15.31, 31.09 16.09 C30.93 16.87, 30.69 17.65, 30.38 18.39 C30.07 19.14, 29.68 19.87, 29.23 20.56 C28.78 21.25, 28.25 21.91, 27.66 22.52 C27.08 23.12, 26.43 23.7, 25.73 24.21 C25.04 24.72, 24.28 25.18, 23.5 25.58 C22.71 25.97, 21.87 26.31, 21.02 26.59 C20.17 26.86, 19.28 27.07, 18.38 27.2 C17.49 27.34, 16.57 27.41, 15.66 27.41 C14.76 27.41, 13.84 27.34, 12.94 27.2 C12.05 27.07, 11.16 26.86, 10.31 26.59 C9.45 26.31, 8.62 25.97, 7.83 25.58 C7.05 25.18, 6.29 24.72, 5.6 24.21 C4.9 23.7, 4.25 23.12, 3.66 22.52 C3.08 21.91, 2.55 21.25, 2.1 20.56 C1.65 19.87, 1.25 19.14, 0.94 18.39 C0.63 17.65, 0.4 16.87, 0.24 16.09 C0.08 15.31, 0 14.5, 0 13.71 C0 12.91, 0.08 12.11, 0.24 11.33 C0.4 10.54, 0.63 9.76, 0.94 9.02 C1.25 8.27, 1.65 7.54, 2.1 6.85 C2.55 6.17, 3.08 5.5, 3.66 4.9 C4.25 4.29, 4.9 3.72, 5.6 3.21 C6.29 2.7, 7.05 2.23, 7.83 1.84 C8.62 1.44, 9.45 1.1, 10.31 0.83 C11.16 0.56, 12.05 0.35, 12.94 0.21 C13.84 0.07, 14.76 0, 15.66 0 C16.57 0, 17.49 0.07, 18.38 0.21 C19.28 0.35, 20.17 0.56, 21.02 0.83 C21.87 1.1, 22.71 1.44, 23.5 1.84 C24.28 2.23, 25.04 2.7, 25.73 3.21 C26.43 3.72, 27.08 4.29, 27.66 4.9 C28.25 5.5, 28.78 6.17, 29.23 6.85 C29.68 7.54, 30.07 8.27, 30.38 9.02 C30.69 9.76, 30.93 10.54, 31.09 11.33 C31.25 12.11, 31.29 13.31, 31.33 13.71 C31.37 14.1, 31.37 13.31, 31.33 13.71" stroke="#000000" stroke-width="2" fill="none"></path></g><g stroke-linecap="round" transform="translate(156.00818399785743 159.85331297960187) rotate(0 15.664385704448136 13.706337491392162)"><path d="M3.86 4.68 C3.86 4.68, 3.86 4.68, 3.86 4.68 M3.86 4.68 C3.86 4.68, 3.86 4.68, 3.86 4.68 M2.02 18.98 C6.94 13.32, 11.86 7.66, 17.11 1.62 M2.02 18.98 C6.01 14.39, 10.01 9.8, 17.11 1.62 M6.75 25.74 C11.48 20.3, 16.21 14.86, 25.77 3.85 M6.75 25.74 C11.19 20.62, 15.64 15.5, 25.77 3.85 M16.06 27.21 C21.22 21.28, 26.38 15.35, 31.15 9.86 M16.06 27.21 C21.37 21.11, 26.68 15.01, 31.15 9.86 M5.52 24.14 C5.52 24.14, 5.52 24.14, 5.52 24.14 M5.52 24.14 C5.52 24.14, 5.52 24.14, 5.52 24.14 M19.82 25.97 C14.1 21, 8.37 16.02, 1.71 10.23 M19.82 25.97 C16.08 22.72, 12.33 19.46, 1.71 10.23 M28.09 22.56 C21.9 17.18, 15.71 11.8, 5.45 2.88 M28.09 22.56 C19.29 14.91, 10.5 7.27, 5.45 2.88 M31.83 15.21 C26.21 10.32, 20.58 5.43, 13.72 -0.54 M31.83 15.21 C25.47 9.68, 19.12 4.16, 13.72 -0.54" stroke="#ced4da" stroke-width="1" fill="none"></path><path d="M31.33 13.71 C31.33 14.5, 31.25 15.31, 31.09 16.09 C30.93 16.87, 30.69 17.65, 30.38 18.39 C30.07 19.14, 29.68 19.87, 29.23 20.56 C28.78 21.25, 28.25 21.91, 27.66 22.52 C27.08 23.12, 26.43 23.7, 25.73 24.21 C25.04 24.72, 24.28 25.18, 23.5 25.58 C22.71 25.97, 21.87 26.31, 21.02 26.59 C20.17 26.86, 19.28 27.07, 18.38 27.2 C17.49 27.34, 16.57 27.41, 15.66 27.41 C14.76 27.41, 13.84 27.34, 12.94 27.2 C12.05 27.07, 11.16 26.86, 10.31 26.59 C9.45 26.31, 8.62 25.97, 7.83 25.58 C7.05 25.18, 6.29 24.72, 5.6 24.21 C4.9 23.7, 4.25 23.12, 3.66 22.52 C3.08 21.91, 2.55 21.25, 2.1 20.56 C1.65 19.87, 1.25 19.14, 0.94 18.39 C0.63 17.65, 0.4 16.87, 0.24 16.09 C0.08 15.31, 0 14.5, 0 13.71 C0 12.91, 0.08 12.11, 0.24 11.33 C0.4 10.54, 0.63 9.76, 0.94 9.02 C1.25 8.27, 1.65 7.54, 2.1 6.85 C2.55 6.17, 3.08 5.5, 3.66 4.9 C4.25 4.29, 4.9 3.72, 5.6 3.21 C6.29 2.7, 7.05 2.23, 7.83 1.84 C8.62 1.44, 9.45 1.1, 10.31 0.83 C11.16 0.56, 12.05 0.35, 12.94 0.21 C13.84 0.07, 14.76 0, 15.66 0 C16.57 0, 17.49 0.07, 18.38 0.21 C19.28 0.35, 20.17 0.56, 21.02 0.83 C21.87 1.1, 22.71 1.44, 23.5 1.84 C24.28 2.23, 25.04 2.7, 25.73 3.21 C26.43 3.72, 27.08 4.29, 27.66 4.9 C28.25 5.5, 28.78 6.17, 29.23 6.85 C29.68 7.54, 30.07 8.27, 30.38 9.02 C30.69 9.76, 30.93 10.54, 31.09 11.33 C31.25 12.11, 31.29 13.31, 31.33 13.71 C31.37 14.1, 31.37 13.31, 31.33 13.71" stroke="#000000" stroke-width="2" fill="none"></path></g><g stroke-linecap="round"><g transform="translate(172.58727172933487 253.33203830421155) rotate(0 34.75202852762112 -29.335986568686565)" fill-rule="evenodd"><path d="M12.31 -46.27 C12.31 -46.27, 12.31 -46.27, 12.31 -46.27 M12.31 -46.27 C12.31 -46.27, 12.31 -46.27, 12.31 -46.27 M6.54 -27.44 C12.1 -33.84, 17.66 -40.23, 32.78 -57.63 M6.54 -27.44 C16.6 -39.01, 26.66 -50.58, 32.78 -57.63 M4.71 -13.13 C16.81 -27.06, 28.91 -40.98, 41.45 -55.4 M4.71 -13.13 C16.17 -26.32, 27.63 -39.5, 41.45 -55.4 M2.22 1.93 C17.77 -15.97, 33.33 -33.87, 48.8 -51.66 M2.22 1.93 C14.8 -12.55, 27.38 -27.03, 48.8 -51.66 M12.85 1.89 C26.73 -14.08, 40.61 -30.05, 54.83 -46.41 M12.85 1.89 C21.85 -8.47, 30.85 -18.82, 54.83 -46.41 M23.48 1.86 C36.12 -12.69, 48.76 -27.23, 60.22 -40.41 M23.48 1.86 C36.63 -13.28, 49.79 -28.42, 60.22 -40.41 M34.76 1.07 C41.72 -6.93, 48.67 -14.94, 63.63 -32.14 M34.76 1.07 C43.41 -8.88, 52.05 -18.82, 63.63 -32.14 M45.39 1.03 C53.23 -7.98, 61.06 -16.99, 67.7 -24.63 M45.39 1.03 C50.96 -5.37, 56.53 -11.78, 67.7 -24.63 M55.37 1.75 C62.03 -5.91, 68.69 -13.57, 72.42 -17.87 M55.37 1.75 C61.52 -5.33, 67.68 -12.41, 72.42 -17.87 M0 0 C0 0, 0 0, 0 0 M0 0 C0 0, 0 0, 0 0 M12.04 -0.13 C9.12 -2.67, 6.2 -5.21, 1.47 -9.32 M12.04 -0.13 C9.39 -2.43, 6.75 -4.73, 1.47 -9.32 M24.84 0.39 C16.56 -6.81, 8.28 -14, 2.95 -18.64 M24.84 0.39 C16.26 -7.07, 7.68 -14.52, 2.95 -18.64 M35.37 -1.06 C27.03 -8.31, 18.68 -15.56, 3.67 -28.61 M35.37 -1.06 C23.41 -11.45, 11.45 -21.85, 3.67 -28.61 M46.65 -1.84 C35.26 -11.75, 23.86 -21.66, 8.92 -34.65 M46.65 -1.84 C35.85 -11.24, 25.04 -20.64, 8.92 -34.65 M56.43 -3.95 C43.64 -15.06, 30.86 -26.18, 11.15 -43.31 M56.43 -3.95 C46.98 -12.17, 37.52 -20.38, 11.15 -43.31 M66.96 -5.39 C55.13 -15.67, 43.31 -25.95, 15.64 -50 M66.96 -5.39 C53 -17.53, 39.04 -29.67, 15.64 -50 M70.7 -12.74 C54.37 -26.94, 38.04 -41.13, 21.65 -55.38 M70.7 -12.74 C52.55 -28.52, 34.41 -44.29, 21.65 -55.38 M68.4 -25.34 C54.06 -37.81, 39.72 -50.27, 28.4 -60.11 M68.4 -25.34 C52.79 -38.91, 37.18 -52.48, 28.4 -60.11" stroke="#ced4da" stroke-width="1" fill="none"></path><path d="M0 0 C1.24 -6.52, 2.12 -29.29, 7.43 -39.13 C12.73 -48.97, 23.7 -58.34, 31.83 -59.05 C39.97 -59.76, 50.49 -52.56, 56.23 -43.4 C61.98 -34.23, 75.69 -11.3, 66.31 -4.06 C56.94 3.17, 11.05 -0.68, 0 0 M0 0 C1.24 -6.52, 2.12 -29.29, 7.43 -39.13 C12.73 -48.97, 23.7 -58.34, 31.83 -59.05 C39.97 -59.76, 50.49 -52.56, 56.23 -43.4 C61.98 -34.23, 75.69 -11.3, 66.31 -4.06 C56.94 3.17, 11.05 -0.68, 0 0" stroke="#000000" stroke-width="2" fill="none"></path></g></g><g stroke-linecap="round" transform="translate(189.22077086923917 163.59132464045416) rotate(0 16.976466912310855 14.854408548272062)"><path d="M4.23 5.01 C4.23 5.01, 4.23 5.01, 4.23 5.01 M4.23 5.01 C4.23 5.01, 4.23 5.01, 4.23 5.01 M1.74 20.06 C7.59 13.34, 13.43 6.62, 18.14 1.2 M1.74 20.06 C5.22 16.07, 8.69 12.07, 18.14 1.2 M6.47 26.82 C14.26 17.85, 22.06 8.89, 26.81 3.43 M6.47 26.82 C13.17 19.12, 19.87 11.41, 26.81 3.43 M14.47 29.81 C20.2 23.21, 25.94 16.62, 32.84 8.68 M14.47 29.81 C20.61 22.75, 26.74 15.69, 32.84 8.68 M27.73 26.75 C29.32 24.92, 30.92 23.08, 33.63 19.96 M27.73 26.75 C29.68 24.51, 31.63 22.26, 33.63 19.96 M6.22 26.37 C6.22 26.37, 6.22 26.37, 6.22 26.37 M6.22 26.37 C6.22 26.37, 6.22 26.37, 6.22 26.37 M20.53 28.21 C13.5 22.1, 6.47 15.99, 0.91 11.15 M20.53 28.21 C15.8 24.1, 11.07 19.99, 0.91 11.15 M28.8 24.79 C21.56 18.51, 14.33 12.22, 4.65 3.8 M28.8 24.79 C20.31 17.42, 11.83 10.05, 4.65 3.8 M34.05 18.76 C28.58 14.01, 23.12 9.26, 12.16 -0.27 M34.05 18.76 C25.5 11.33, 16.95 3.9, 12.16 -0.27" stroke="#ced4da" stroke-width="1" fill="none"></path><path d="M33.95 14.85 C33.95 15.71, 33.87 16.59, 33.7 17.43 C33.52 18.28, 33.27 19.13, 32.93 19.93 C32.59 20.74, 32.17 21.54, 31.68 22.28 C31.19 23.03, 30.61 23.74, 29.98 24.4 C29.35 25.06, 28.64 25.68, 27.89 26.23 C27.14 26.79, 26.32 27.29, 25.46 27.72 C24.61 28.15, 23.71 28.52, 22.78 28.81 C21.86 29.11, 20.89 29.33, 19.92 29.48 C18.96 29.63, 17.96 29.71, 16.98 29.71 C15.99 29.71, 15 29.63, 14.03 29.48 C13.06 29.33, 12.09 29.11, 11.17 28.81 C10.25 28.52, 9.34 28.15, 8.49 27.72 C7.64 27.29, 6.82 26.79, 6.06 26.23 C5.31 25.68, 4.6 25.06, 3.97 24.4 C3.34 23.74, 2.77 23.03, 2.27 22.28 C1.78 21.54, 1.36 20.74, 1.02 19.93 C0.69 19.13, 0.43 18.28, 0.26 17.43 C0.09 16.59, 0 15.71, 0 14.85 C0 13.99, 0.09 13.12, 0.26 12.27 C0.43 11.43, 0.69 10.58, 1.02 9.77 C1.36 8.97, 1.78 8.17, 2.27 7.43 C2.77 6.68, 3.34 5.96, 3.97 5.31 C4.6 4.65, 5.31 4.03, 6.06 3.48 C6.82 2.92, 7.64 2.42, 8.49 1.99 C9.34 1.56, 10.25 1.19, 11.17 0.9 C12.09 0.6, 13.06 0.37, 14.03 0.23 C15 0.08, 15.99 0, 16.98 0 C17.96 0, 18.96 0.08, 19.92 0.23 C20.89 0.37, 21.86 0.6, 22.78 0.9 C23.71 1.19, 24.61 1.56, 25.46 1.99 C26.32 2.42, 27.14 2.92, 27.89 3.48 C28.64 4.03, 29.35 4.65, 29.98 5.31 C30.61 5.96, 31.19 6.68, 31.68 7.43 C32.17 8.17, 32.59 8.97, 32.93 9.77 C33.27 10.58, 33.52 11.43, 33.7 12.27 C33.87 13.12, 33.91 14.42, 33.95 14.85 C34 15.28, 34 14.42, 33.95 14.85" stroke="#000000" stroke-width="2" fill="none"></path></g><g stroke-linecap="round"><g transform="translate(218.82826589620328 199.92484445067095) rotate(0 26.51979344407067 15.7373244531978)" fill-rule="evenodd"><path d="M0 0 C0 0, 0 0, 0 0 M0 0 C0 0, 0 0, 0 0 M6.04 5.25 C10.11 0.57, 14.18 -4.11, 19.16 -9.85 M6.04 5.25 C9.52 1.24, 13.01 -2.77, 19.16 -9.85 M12.08 10.5 C19.11 2.41, 26.14 -5.69, 30.45 -10.63 M12.08 10.5 C18.6 2.99, 25.13 -4.52, 30.45 -10.63 M15.49 18.76 C22.69 10.48, 29.89 2.2, 39.11 -8.41 M15.49 18.76 C21.17 12.22, 26.86 5.68, 39.11 -8.41 M19.56 26.28 C25.36 19.61, 31.16 12.93, 44.49 -2.4 M19.56 26.28 C25.11 19.89, 30.65 13.51, 44.49 -2.4 M23.63 33.79 C29.13 27.46, 34.63 21.13, 47.9 5.87 M23.63 33.79 C31.48 24.76, 39.33 15.72, 47.9 5.87 M24.42 45.08 C31.6 36.81, 38.78 28.55, 50.66 14.89 M24.42 45.08 C32.73 35.51, 41.05 25.94, 50.66 14.89 M31.11 49.57 C35.76 44.22, 40.41 38.87, 53.42 23.91 M31.11 49.57 C36.79 43.03, 42.47 36.5, 53.42 23.91 M46.99 43.5 C49.85 40.21, 52.71 36.91, 55.52 33.69 M46.99 43.5 C49.51 40.6, 52.03 37.7, 55.52 33.69 M23.64 44.44 C23.64 44.44, 23.64 44.44, 23.64 44.44 M23.64 44.44 C23.64 44.44, 23.64 44.44, 23.64 44.44 M30.4 39.72 C27.93 37.57, 25.45 35.41, 23.61 33.81 M30.4 39.72 C28.21 37.81, 26.01 35.9, 23.61 33.81 M43.2 40.24 C36.85 34.72, 30.5 29.21, 14.52 15.31 M43.2 40.24 C37.06 34.9, 30.91 29.56, 14.52 15.31 M52.97 38.14 C37.08 24.32, 21.18 10.5, 3.92 -4.51 M52.97 38.14 C34.7 22.25, 16.42 6.37, 3.92 -4.51 M54.45 28.82 C38.4 14.87, 22.35 0.92, 9.16 -10.54 M54.45 28.82 C44.82 20.45, 35.19 12.08, 9.16 -10.54 M55.17 18.85 C43.8 8.97, 32.44 -0.91, 16.68 -14.61 M55.17 18.85 C42.69 8, 30.22 -2.84, 16.68 -14.61 M53.62 6.9 C44.58 -0.95, 35.54 -8.81, 27.96 -15.4 M53.62 6.9 C48.48 2.44, 43.34 -2.03, 27.96 -15.4" stroke="#ced4da" stroke-width="1" fill="none"></path><path d="M0 0 C1.37 -1.47, 5.68 -6.63, 8.21 -8.84 C10.73 -11.05, 12 -12.42, 15.15 -13.26 C18.31 -14.1, 23.78 -14.1, 27.15 -13.89 C30.52 -13.68, 33.04 -13.37, 35.36 -12 C37.67 -10.63, 39.46 -8.1, 41.04 -5.68 C42.62 -3.26, 43.57 -0.53, 44.83 2.53 C46.09 5.58, 47.46 9.26, 48.62 12.63 C49.78 16, 51.04 19.68, 51.78 22.73 C52.51 25.78, 53.04 28.2, 53.04 30.94 C53.04 33.68, 52.83 37.15, 51.78 39.15 C50.72 41.15, 48.72 41.99, 46.73 42.94 C44.73 43.88, 42.62 44.41, 39.78 44.83 C36.94 45.25, 32.41 45.57, 29.68 45.46 C26.94 45.36, 24.52 45.88, 23.36 44.2 C22.21 42.52, 23.26 37.78, 22.73 35.36 C22.21 32.94, 21.36 32.1, 20.21 29.68 C19.05 27.26, 17.57 24.31, 15.79 20.84 C14 17.36, 12.1 12.31, 9.47 8.84 C6.84 5.37, 1.58 1.47, 0 0 M0 0 C1.37 -1.47, 5.68 -6.63, 8.21 -8.84 C10.73 -11.05, 12 -12.42, 15.15 -13.26 C18.31 -14.1, 23.78 -14.1, 27.15 -13.89 C30.52 -13.68, 33.04 -13.37, 35.36 -12 C37.67 -10.63, 39.46 -8.1, 41.04 -5.68 C42.62 -3.26, 43.57 -0.53, 44.83 2.53 C46.09 5.58, 47.46 9.26, 48.62 12.63 C49.78 16, 51.04 19.68, 51.78 22.73 C52.51 25.78, 53.04 28.2, 53.04 30.94 C53.04 33.68, 52.83 37.15, 51.78 39.15 C50.72 41.15, 48.72 41.99, 46.73 42.94 C44.73 43.88, 42.62 44.41, 39.78 44.83 C36.94 45.25, 32.41 45.57, 29.68 45.46 C26.94 45.36, 24.52 45.88, 23.36 44.2 C22.21 42.52, 23.26 37.78, 22.73 35.36 C22.21 32.94, 21.36 32.1, 20.21 29.68 C19.05 27.26, 17.57 24.31, 15.79 20.84 C14 17.36, 12.1 12.31, 9.47 8.84 C6.84 5.37, 1.58 1.47, 0 0" stroke="#000000" stroke-width="2" fill="none"></path></g></g><g stroke-linecap="round"><g transform="translate(190.40478247944378 199.9060064258776) rotate(0 -25.572657963925337 19.34251868138159)" fill-rule="evenodd"><path d="M-39.26 -3.66 C-39.26 -3.66, -39.26 -3.66, -39.26 -3.66 M-39.26 -3.66 C-39.26 -3.66, -39.26 -3.66, -39.26 -3.66 M-45.69 15.93 C-38.07 7.16, -30.44 -1.61, -23.38 -9.73 M-45.69 15.93 C-37.85 6.91, -30 -2.12, -23.38 -9.73 M-50.15 33.26 C-42.02 23.9, -33.89 14.55, -12.1 -10.52 M-50.15 33.26 C-36.91 18.02, -23.67 2.79, -12.1 -10.52 M-48.05 43.03 C-34.57 27.53, -21.1 12.03, -5.41 -6.02 M-48.05 43.03 C-39.23 32.88, -30.41 22.74, -5.41 -6.02 M-41.36 47.53 C-30.06 34.53, -18.76 21.53, -0.02 -0.02 M-41.36 47.53 C-25.3 29.06, -9.24 10.58, -0.02 -0.02 M-34.01 51.27 C-26.88 43.06, -19.75 34.86, -11.04 24.85 M-34.01 51.27 C-25.95 42, -17.89 32.73, -11.04 24.85 M-25.34 53.5 C-21.1 48.61, -16.85 43.72, -14.19 40.66 M-25.34 53.5 C-21.19 48.72, -17.04 43.95, -14.19 40.66 M-50.09 40.86 C-50.09 40.86, -50.09 40.86, -50.09 40.86 M-50.09 40.86 C-50.09 40.86, -50.09 40.86, -50.09 40.86 M-35.03 43.35 C-40.01 39.02, -44.99 34.69, -49.37 30.89 M-35.03 43.35 C-38.37 40.45, -41.71 37.55, -49.37 30.89 M-16.96 48.47 C-27.41 39.38, -37.87 30.29, -47.14 22.22 M-16.96 48.47 C-26.74 39.96, -36.53 31.45, -47.14 22.22 M-16.24 38.49 C-26.28 29.76, -36.32 21.03, -45.67 12.91 M-16.24 38.49 C-25.7 30.26, -35.17 22.03, -45.67 12.91 M-14.76 29.17 C-24.28 20.9, -33.79 12.63, -41.93 5.56 M-14.76 29.17 C-21.03 23.73, -27.29 18.28, -41.93 5.56 M-11.78 21.17 C-22.35 11.97, -32.93 2.78, -38.95 -2.45 M-11.78 21.17 C-20.12 13.91, -28.47 6.66, -38.95 -2.45 M-8.04 13.82 C-15.95 6.94, -23.86 0.06, -34.45 -9.14 M-8.04 13.82 C-18.09 5.08, -28.14 -3.66, -34.45 -9.14 M-4.3 6.47 C-11.17 0.49, -18.04 -5.48, -29.2 -15.18 M-4.3 6.47 C-11.14 0.52, -17.98 -5.43, -29.2 -15.18 M0.2 -0.23 C-3.59 -3.52, -7.38 -6.81, -12.63 -11.38 M0.2 -0.23 C-4.04 -3.91, -8.28 -7.6, -12.63 -11.38" stroke="#ced4da" stroke-width="1" fill="none"></path><path d="M0 0 C-1.05 -1.16, -4.1 -5.05, -6.31 -6.95 C-8.52 -8.84, -10.1 -10.52, -13.26 -11.37 C-16.42 -12.21, -21.89 -12.21, -25.26 -12 C-28.62 -11.79, -31.15 -11.47, -33.47 -10.1 C-35.78 -8.73, -37.57 -6.21, -39.15 -3.79 C-40.73 -1.37, -41.67 1.37, -42.94 4.42 C-44.2 7.47, -45.57 11.16, -46.73 14.52 C-47.88 17.89, -49.15 21.57, -49.88 24.63 C-50.62 27.68, -51.15 30.1, -51.15 32.83 C-51.15 35.57, -50.93 39.04, -49.88 41.04 C-48.83 43.04, -46.73 43.67, -44.83 44.83 C-42.94 45.99, -41.25 47.15, -38.52 47.99 C-35.78 48.83, -31.89 49.57, -28.41 49.88 C-24.94 50.2, -19.68 51.78, -17.68 49.88 C-15.68 47.99, -16.84 41.36, -16.42 38.52 C-16 35.68, -15.68 35.36, -15.15 32.83 C-14.63 30.31, -14.52 27.05, -13.26 23.36 C-12 19.68, -9.79 14.63, -7.58 10.73 C-5.37 6.84, -1.26 1.79, 0 0 M0 0 C-1.05 -1.16, -4.1 -5.05, -6.31 -6.95 C-8.52 -8.84, -10.1 -10.52, -13.26 -11.37 C-16.42 -12.21, -21.89 -12.21, -25.26 -12 C-28.62 -11.79, -31.15 -11.47, -33.47 -10.1 C-35.78 -8.73, -37.57 -6.21, -39.15 -3.79 C-40.73 -1.37, -41.67 1.37, -42.94 4.42 C-44.2 7.47, -45.57 11.16, -46.73 14.52 C-47.88 17.89, -49.15 21.57, -49.88 24.63 C-50.62 27.68, -51.15 30.1, -51.15 32.83 C-51.15 35.57, -50.93 39.04, -49.88 41.04 C-48.83 43.04, -46.73 43.67, -44.83 44.83 C-42.94 45.99, -41.25 47.15, -38.52 47.99 C-35.78 48.83, -31.89 49.57, -28.41 49.88 C-24.94 50.2, -19.68 51.78, -17.68 49.88 C-15.68 47.99, -16.84 41.36, -16.42 38.52 C-16 35.68, -15.68 35.36, -15.15 32.83 C-14.63 30.31, -14.52 27.05, -13.26 23.36 C-12 19.68, -9.79 14.63, -7.58 10.73 C-5.37 6.84, -1.26 1.79, 0 0" stroke="#000000" stroke-width="2" fill="none"></path></g></g><g stroke-linecap="round"><g transform="translate(317.80859375000006 168.61465454101562) rotate(0 86.1123780217394 -12.955407772008328)"><path d="M0.63 -0.84 C28.92 -5.48, 141.94 -22.65, 170.33 -27.24 M-0.5 1.33 C28.14 -3.14, 144.27 -20.8, 172.72 -25.61" stroke="#000000" stroke-width="1" fill="none"></path></g><g transform="translate(317.80859375000006 168.61465454101562) rotate(0 86.1123780217394 -12.955407772008328)"><path d="M145.09 -12.05 C155.9 -16.21, 163.2 -20.16, 173.23 -25.79 M146.06 -10.93 C153.22 -14.88, 161.84 -18.87, 172.05 -24.68" stroke="#000000" stroke-width="1" fill="none"></path></g><g transform="translate(317.80859375000006 168.61465454101562) rotate(0 86.1123780217394 -12.955407772008328)"><path d="M141.87 -32.31 C153.9 -29.41, 162.32 -26.26, 173.23 -25.79 M142.83 -31.2 C150.93 -29.45, 160.45 -27.78, 172.05 -24.68" stroke="#000000" stroke-width="1" fill="none"></path></g></g><g stroke-linecap="round"><g transform="translate(310.08410644531256 221.5575408935547) rotate(0 88.65936803184451 0.8977402909658849)"><path d="M-0.79 1 C28.94 1.13, 148.32 1.67, 178.11 1.7 M0.99 0.47 C30.58 0.21, 147.79 0.35, 177.14 0.1" stroke="#000000" stroke-width="1" fill="none"></path></g><g transform="translate(310.08410644531256 221.5575408935547) rotate(0 88.65936803184451 0.8977402909658849)"><path d="M150.64 10.36 C158.4 7.39, 165.27 6.39, 175.73 -0.73 M149.19 11.02 C158.14 8.03, 166.07 3.22, 176.54 -0.34" stroke="#000000" stroke-width="1" fill="none"></path></g><g transform="translate(310.08410644531256 221.5575408935547) rotate(0 88.65936803184451 0.8977402909658849)"><path d="M150.58 -10.16 C158.51 -7.42, 165.39 -2.72, 175.73 -0.73 M149.13 -9.5 C158.19 -6.29, 166.14 -4.89, 176.54 -0.34" stroke="#000000" stroke-width="1" fill="none"></path></g></g><g stroke-linecap="round"><g transform="translate(311.8733520507813 266.50950622558594) rotate(0 88.16504513584078 13.050804782286292)"><path d="M-0.79 -0.83 C28.66 3.54, 147.65 22.56, 177.12 26.93 M1 1.35 C30.27 5.33, 146.68 21.12, 176.25 25.3" stroke="#000000" stroke-width="1" fill="none"></path></g><g transform="translate(311.8733520507813 266.50950622558594) rotate(0 88.16504513584078 13.050804782286292)"><path d="M145.54 31.84 C158.25 28.09, 165.52 27.23, 176.69 23.85 M146.04 30.97 C156.29 30.36, 164.86 27.36, 177.13 25.86" stroke="#000000" stroke-width="1" fill="none"></path></g><g transform="translate(311.8733520507813 266.50950622558594) rotate(0 88.16504513584078 13.050804782286292)"><path d="M148.35 11.52 C160.25 14.54, 166.57 20.48, 176.69 23.85 M148.84 10.65 C158.09 16.18, 165.81 19.33, 177.13 25.86" stroke="#000000" stroke-width="1" fill="none"></path></g></g><g transform="translate(10 348.8474426269531) rotate(0 202.00000000000003 25)"><text x="202" y="18" font-family="Virgil, Segoe UI Emoji" font-size="19.613395376826045px" fill="#000000" text-anchor="middle" style="white-space: pre;" direction="ltr">Clients connect to the app sending</text><text x="202" y="43" font-family="Virgil, Segoe UI Emoji" font-size="19.613395376826045px" fill="#000000" text-anchor="middle" style="white-space: pre;" direction="ltr"> HTTP requests (GET, PUT, POST etc.)</text></g><g transform="translate(792.2794189453125 356.7852478027344) rotate(0 209 50)"><text x="209" y="18" font-family="Virgil, Segoe UI Emoji" font-size="20px" fill="#000000" text-anchor="middle" style="white-space: pre;" direction="ltr">Requests turn to DB queries as</text><text x="209" y="43" font-family="Virgil, Segoe UI Emoji" font-size="20px" fill="#000000" text-anchor="middle" style="white-space: pre;" direction="ltr">necessary to execute certain</text><text x="209" y="68" font-family="Virgil, Segoe UI Emoji" font-size="20px" fill="#000000" text-anchor="middle" style="white-space: pre;" direction="ltr">business logic/build HTTPResponse objects</text><text x="209" y="93" font-family="Virgil, Segoe UI Emoji" font-size="20px" fill="#000000" text-anchor="middle" style="white-space: pre;" direction="ltr">to send back to the clients</text></g><g stroke-linecap="round"><g transform="translate(805.398681640625 217.33450317382812) rotate(0 64.52701113782825 0.8831303500039951)"><path d="M-0.82 -0.83 C20.99 -0.74, 108.06 0.72, 129.87 1.17 M0.95 1.34 C22.68 1.56, 107.48 2.83, 128.88 2.57" stroke="#000000" stroke-width="1" fill="none"></path></g><g transform="translate(805.398681640625 217.33450317382812) rotate(0 64.52701113782825 0.8831303500039951)"><path d="M26.13 -10.84 C20.91 -8.62, 15.9 -5.19, -0.66 -2.68 M28.04 -11.62 C20.69 -9.11, 12.66 -4.98, -1.56 -1.62" stroke="#000000" stroke-width="1" fill="none"></path></g><g transform="translate(805.398681640625 217.33450317382812) rotate(0 64.52701113782825 0.8831303500039951)"><path d="M25.83 9.68 C20.57 7.41, 15.63 6.35, -0.66 -2.68 M27.75 8.89 C20.46 6.09, 12.5 4.89, -1.56 -1.62" stroke="#000000" stroke-width="1" fill="none"></path></g><g transform="translate(805.398681640625 217.33450317382812) rotate(0 64.52701113782825 0.8831303500039951)"><path d="M99.26 12.58 C106.32 10.81, 113.68 9.86, 129.04 0.72 M101.18 11.8 C108.49 9.45, 115.14 8.38, 128.13 1.78" stroke="#000000" stroke-width="1" fill="none"></path></g><g transform="translate(805.398681640625 217.33450317382812) rotate(0 64.52701113782825 0.8831303500039951)"><path d="M99.33 -7.94 C106.47 -5.22, 113.82 -1.68, 129.04 0.72 M101.24 -8.72 C108.56 -5.75, 115.19 -1.49, 128.13 1.78" stroke="#000000" stroke-width="1" fill="none"></path></g></g><g transform="translate(500.04504394531256 10) rotate(0 137 12.5)"><text x="137" y="18" font-family="Virgil, Segoe UI Emoji" font-size="20px" fill="#000000" text-anchor="middle" style="white-space: pre;" direction="ltr">Classic 3 Tier Architecture</text></g></svg>