<svg version="1.1" xmlns="http://www.w3.org/2000/svg" viewBox="0 0 816.2556647564693 401.41590619129846" width="816.2556647564693" height="401.41590619129846">
  <!-- svg-source:excalidraw -->
  
  <defs>
    <style>
      @font-face {
        font-family: "Virgil";
        src: url("https://excalidraw.com/Virgil.woff2");
      }
      @font-face {
        font-family: "Cascadia";
        src: url("https://excalidraw.com/Cascadia.woff2");
      }
    </style>
  </defs>
  <rect x="0" y="0" width="816.2556647564693" height="401.41590619129846" fill="#ffffff"></rect><g stroke-linecap="round"><g transform="translate(707.8074161465181 81.68466178101227) rotate(0 38.23355324091415 41.19327231075695)" fill-rule="evenodd"><path d="M1.36 -1.76 L1.34 85.52 L2.03 87.25 L19.56 92.59 L39.06 89.66 L64.35 88.46 L77.18 84.39 L75.23 -1.34 L68.52 -4.22 L35.74 -9.81 L9.1 -4.46 L1.5 -4.05 L-0.41 1.56" stroke="none" stroke-width="0" fill="#ced4da" fill-rule="evenodd"></path><path d="M0.84 -0.31 C0.77 12.23, 0.42 61.99, 0.18 76 C-0.06 90.01, -1.06 82.02, -0.62 83.76 C-0.19 85.51, -0.45 85.17, 2.79 86.48 C6.02 87.8, 12.6 90.74, 18.79 91.65 C24.98 92.56, 32.6 92.29, 39.94 91.93 C47.28 91.56, 57.07 90.21, 62.82 89.46 C68.57 88.71, 71.96 88.59, 74.45 87.43 C76.93 86.27, 77.26 84.37, 77.75 82.49 C78.24 80.61, 77.72 88.95, 77.37 76.13 C77.02 63.32, 75.87 18.2, 75.67 5.6 C75.47 -6.99, 77.03 2.07, 76.18 0.58 C75.34 -0.91, 73.3 -2.38, 70.58 -3.32 C67.87 -4.26, 65.45 -4.17, 59.89 -5.07 C54.32 -5.97, 43.93 -8.53, 37.18 -8.71 C30.44 -8.89, 25.11 -7.18, 19.42 -6.15 C13.73 -5.12, 6.36 -3.53, 3.02 -2.53 C-0.32 -1.52, 0.05 -0.61, -0.62 -0.12 C-1.3 0.38, -1.24 0.44, -1.02 0.42 M-0.19 -1.51 C-0.46 10.62, -0.55 59.87, -0.81 74.3 C-1.06 88.73, -2.26 82.95, -1.72 85.08 C-1.18 87.21, -0.85 86.43, 2.41 87.08 C5.67 87.72, 11.47 88.27, 17.86 88.94 C24.26 89.61, 33.21 90.65, 40.77 91.08 C48.33 91.5, 57.21 92.05, 63.2 91.49 C69.19 90.92, 74.48 88.86, 76.71 87.68 C78.94 86.51, 76.3 86.43, 76.57 84.42 C76.83 82.41, 78.51 88.65, 78.31 75.62 C78.11 62.58, 75.97 18.72, 75.36 6.22 C74.74 -6.28, 75.47 2.29, 74.63 0.62 C73.79 -1.05, 72.4 -2.91, 70.33 -3.79 C68.26 -4.68, 67.7 -3.73, 62.22 -4.71 C56.73 -5.69, 44.91 -9.1, 37.44 -9.68 C29.97 -10.26, 23.36 -9.56, 17.39 -8.18 C11.42 -6.8, 4.28 -2.81, 1.63 -1.42 C-1.03 -0.02, 1.6 -0.17, 1.45 0.22 C1.3 0.6, 0.71 0.67, 0.71 0.9" stroke="#000000" stroke-width="1" fill="none"></path></g></g><g stroke-linecap="round"><g transform="translate(708.3313455847931 138.81094543874218) rotate(0 39.001653292933156 3.9617461618847187)"><path d="M-0.31 -0.08 C0.04 0.25, 0.98 1.92, 2.84 2.78 C4.69 3.64, 7.69 4.05, 10.8 5.09 C13.91 6.14, 16.32 8.72, 21.49 9.05 C26.66 9.37, 34.98 7.47, 41.81 7.05 C48.63 6.64, 57.07 7.35, 62.44 6.57 C67.8 5.78, 71.34 3.35, 73.98 2.35 C76.63 1.34, 77.89 0.94, 78.31 0.54 M1.73 -1.16 C1.92 -0.76, 0.92 2.83, 2.31 3.98 C3.69 5.14, 6.88 5.28, 10.03 5.79 C13.19 6.29, 16.08 6.85, 21.23 7.03 C26.37 7.21, 34.37 7.15, 40.89 6.86 C47.42 6.56, 54.8 5.69, 60.38 5.27 C65.95 4.84, 71.42 5.05, 74.34 4.29 C77.26 3.53, 77.25 1.62, 77.88 0.69" stroke="#000000" stroke-width="1" fill="none"></path></g></g><g stroke-linecap="round"><g transform="translate(707.2994882622893 109.84689010351912) rotate(0 38.26614562287898 3.851060420717147)"><path d="M-0.08 0.8 C0.02 1.42, -0.22 2.66, 1.4 3.41 C3.01 4.16, 5.93 4.36, 9.62 5.3 C13.3 6.24, 18.5 8.53, 23.5 9.07 C28.51 9.61, 33.29 8.96, 39.63 8.53 C45.98 8.1, 55.88 7.24, 61.58 6.51 C67.28 5.79, 71.08 5.45, 73.83 4.19 C76.59 2.93, 77.5 -0.27, 78.11 -1.05 M-1.57 0.18 C-1.16 1.03, 1.53 3.96, 3.78 4.95 C6.02 5.94, 8.47 5.75, 11.89 6.1 C15.31 6.46, 19.4 6.57, 24.29 7.07 C29.19 7.57, 34.83 8.81, 41.24 9.11 C47.64 9.4, 57.25 9.79, 62.73 8.85 C68.21 7.9, 71.63 5.2, 74.11 3.44 C76.58 1.67, 77.26 -0.84, 77.57 -1.74" stroke="#000000" stroke-width="1" fill="none"></path></g></g><g stroke-linecap="round" transform="translate(706.2415392802072 74.55239315533066) rotate(0 38.29876800932743 7.745637696423984)"><path d="M44.9 0.91 C52.83 1.19, 62.45 1.74, 67.83 2.96 C73.21 4.19, 77.35 6.58, 77.2 8.27 C77.05 9.96, 72.31 11.83, 66.92 13.11 C61.54 14.39, 53.03 15.81, 44.9 15.95 C36.77 16.09, 25.29 14.96, 18.14 13.93 C11 12.9, 4.76 11.28, 2.02 9.76 C-0.71 8.25, -1.06 6.34, 1.73 4.84 C4.52 3.33, 11.26 1.63, 18.77 0.73 C26.29 -0.17, 41.5 -0.45, 46.82 -0.56 C52.14 -0.66, 50.82 -0.28, 50.68 0.09 M53.21 -0.74 C61 -0.22, 68.86 1.8, 72.88 3.31 C76.9 4.82, 79.18 6.53, 77.35 8.34 C75.52 10.16, 68.37 12.89, 61.92 14.19 C55.47 15.5, 46.82 16.24, 38.63 16.18 C30.45 16.12, 19.14 15.12, 12.81 13.85 C6.48 12.58, 1.72 10.07, 0.66 8.58 C-0.4 7.08, 2.44 6.2, 6.44 4.87 C10.45 3.55, 17.28 1.49, 24.69 0.63 C32.09 -0.24, 46.17 -0.56, 50.86 -0.33 C55.54 -0.11, 52.63 1.56, 52.81 1.96" stroke="none" stroke-width="0" fill="#fff"></path><path d="M39.15 0.88 C46.96 0.97, 55.91 1.27, 61.98 2.11 C68.05 2.95, 74.12 4.2, 75.6 5.94 C77.08 7.68, 74.79 11.14, 70.89 12.57 C66.98 13.99, 59.75 14.08, 52.18 14.47 C44.62 14.87, 33.48 15.49, 25.48 14.92 C17.47 14.35, 8.32 12.33, 4.14 11.03 C-0.05 9.73, -1.11 8.58, 0.36 7.14 C1.82 5.69, 6.11 3.41, 12.91 2.37 C19.71 1.34, 35.69 1.38, 41.15 0.92 C46.61 0.47, 45.43 -0.42, 45.69 -0.34 M33.82 -1.23 C41.45 -1.25, 53.1 0.8, 59.92 2.09 C66.74 3.39, 72.72 4.9, 74.75 6.55 C76.79 8.2, 75.09 10.52, 72.12 11.99 C69.15 13.46, 63.89 14.59, 56.93 15.36 C49.97 16.14, 38.37 17.38, 30.38 16.63 C22.4 15.88, 14.33 12.29, 9.04 10.86 C3.75 9.43, -1.41 9.4, -1.36 8.06 C-1.31 6.71, 3.51 4.33, 9.32 2.78 C15.13 1.23, 29.43 -0.95, 33.52 -1.24 C37.61 -1.54, 33.59 0.85, 33.85 0.99" stroke="#000000" stroke-width="1" fill="none"></path></g><g stroke-linecap="round" transform="translate(742.7335263854297 99.02906083523425) rotate(0 5.61305157708091 6.0918792422278045)"><path d="M3.95 0.7 C5.04 0.22, 6.04 0.58, 7.16 0.79 C8.28 0.99, 9.93 0.94, 10.66 1.92 C11.4 2.89, 11.64 5.38, 11.57 6.64 C11.49 7.9, 11.19 8.59, 10.21 9.47 C9.23 10.35, 7.07 11.75, 5.68 11.92 C4.29 12.09, 2.81 11.28, 1.86 10.5 C0.91 9.72, 0.26 8.55, -0.02 7.24 C-0.29 5.94, -0.33 3.73, 0.2 2.66 C0.73 1.6, 2.47 1.39, 3.16 0.84 C3.86 0.28, 4.09 -0.81, 4.35 -0.68 M2.44 1.4 C3.53 0.97, 5.65 1.64, 6.84 1.85 C8.03 2.06, 8.79 1.59, 9.58 2.66 C10.36 3.73, 11.5 6.96, 11.55 8.27 C11.61 9.57, 10.85 9.79, 9.91 10.48 C8.96 11.17, 7.26 12.19, 5.88 12.39 C4.5 12.59, 2.42 12.75, 1.64 11.67 C0.86 10.59, 1.33 7.55, 1.22 5.9 C1.11 4.25, 0.7 2.53, 0.97 1.77 C1.24 1.01, 2.17 1.35, 2.85 1.33 C3.52 1.31, 4.72 1.94, 5.03 1.67" stroke="none" stroke-width="0" fill="#868e96"></path><path d="M3.84 -0.2 C4.99 -1.07, 6.1 -0.61, 7.05 -0.29 C8.01 0.03, 8.71 0.51, 9.56 1.73 C10.41 2.95, 12.22 5.6, 12.17 7.05 C12.12 8.5, 10.23 9.73, 9.25 10.41 C8.28 11.09, 7.52 11.01, 6.32 11.12 C5.12 11.23, 2.96 11.7, 2.08 11.05 C1.19 10.4, 1.2 8.61, 1.02 7.24 C0.83 5.87, 0.39 4, 0.96 2.85 C1.52 1.69, 3.98 0.58, 4.41 0.32 C4.83 0.06, 3.51 1.21, 3.5 1.29 M5.93 0.78 C7.3 1.03, 10.06 1.7, 11.11 2.48 C12.15 3.26, 12.29 3.87, 12.21 5.46 C12.13 7.05, 11.57 10.73, 10.64 12.01 C9.71 13.29, 7.81 13.07, 6.64 13.15 C5.47 13.23, 4.96 13.66, 3.63 12.48 C2.29 11.31, -0.97 7.79, -1.35 6.08 C-1.72 4.37, 0.52 3.21, 1.36 2.21 C2.21 1.22, 2.97 0.46, 3.73 0.11 C4.49 -0.24, 5.21 -0.06, 5.92 0.1 C6.62 0.26, 7.98 1.2, 7.97 1.09" stroke="#000000" stroke-width="1" fill="none"></path></g><g stroke-linecap="round" transform="translate(743.0846681693633 125.24567512229936) rotate(0 5.61305157708091 6.0918792422278045)"><path d="M4.54 0.3 C5.78 -0.08, 7.91 0.57, 8.86 1.21 C9.8 1.86, 9.84 2.95, 10.21 4.18 C10.58 5.4, 11.47 7.45, 11.05 8.55 C10.64 9.65, 8.79 10.26, 7.71 10.76 C6.64 11.25, 5.74 11.66, 4.59 11.52 C3.44 11.38, 1.65 10.85, 0.8 9.93 C-0.05 9.01, -0.42 7.4, -0.51 6 C-0.6 4.6, -0.7 2.6, 0.26 1.54 C1.23 0.48, 4.64 -0.25, 5.28 -0.37 C5.92 -0.5, 4.07 0.73, 4.12 0.79 M4.91 -0.4 C6.04 -0.8, 8.32 -1.13, 9.19 -0.46 C10.07 0.22, 9.67 2.23, 10.17 3.65 C10.67 5.06, 12.44 6.8, 12.21 8.05 C11.98 9.3, 9.88 10.54, 8.79 11.17 C7.69 11.79, 6.63 11.72, 5.62 11.82 C4.62 11.92, 3.91 12.53, 2.77 11.76 C1.64 10.98, -0.66 8.77, -1.19 7.15 C-1.72 5.52, -1.42 2.93, -0.41 2.01 C0.59 1.08, 3.93 1.72, 4.85 1.59 C5.77 1.46, 5.44 1.2, 5.11 1.23" stroke="none" stroke-width="0" fill="#868e96"></path><path d="M2.46 0.8 C3.27 0.01, 5.6 -0.69, 6.81 -0.2 C8.02 0.28, 8.86 2.62, 9.72 3.69 C10.58 4.77, 11.96 5.13, 11.97 6.25 C11.97 7.37, 10.9 9.53, 9.73 10.42 C8.56 11.31, 6.22 11.37, 4.94 11.59 C3.66 11.8, 2.96 12.3, 2.04 11.71 C1.11 11.12, -0.21 9.3, -0.61 8.06 C-1.02 6.81, -1.07 5.62, -0.4 4.24 C0.28 2.86, 2.6 0.3, 3.46 -0.23 C4.32 -0.77, 4.74 0.75, 4.76 1.05 M4.8 0.99 C5.86 1, 7.07 1.01, 7.84 1.64 C8.61 2.28, 8.65 3.66, 9.42 4.8 C10.2 5.94, 12.45 7.19, 12.5 8.48 C12.55 9.76, 10.71 12.15, 9.71 12.51 C8.71 12.87, 8.1 10.89, 6.51 10.65 C4.91 10.41, 1.41 11.72, 0.13 11.08 C-1.14 10.45, -1.24 8.5, -1.15 6.85 C-1.05 5.21, -0.19 2.18, 0.69 1.2 C1.57 0.22, 3.4 1.31, 4.12 0.97 C4.84 0.62, 5.21 -0.77, 5.02 -0.89" stroke="#000000" stroke-width="1" fill="none"></path></g><g stroke-linecap="round" transform="translate(743.7335263854297 154.01440169360575) rotate(357.5021844865888 5.61305157708091 6.0918792422278045)"><path d="M5.22 0.63 C6.3 0.31, 8.24 -0.21, 9.26 0.44 C10.29 1.09, 11.03 3.32, 11.37 4.53 C11.71 5.75, 11.94 6.58, 11.3 7.72 C10.67 8.85, 8.83 10.74, 7.55 11.34 C6.28 11.95, 4.76 11.73, 3.64 11.36 C2.52 11, 1.49 10.25, 0.83 9.14 C0.18 8.04, -0.27 5.84, -0.28 4.72 C-0.29 3.59, -0.09 3.34, 0.79 2.41 C1.67 1.48, 4.03 -0.61, 4.97 -0.87 C5.91 -1.13, 6.47 0.72, 6.44 0.86 M6.9 1.87 C8.06 2, 8.84 1.64, 9.61 2.72 C10.38 3.8, 11.5 7.03, 11.54 8.34 C11.58 9.64, 10.81 9.85, 9.85 10.53 C8.9 11.2, 7.19 12.21, 5.81 12.39 C4.43 12.57, 2.36 12.72, 1.59 11.62 C0.82 10.53, 1.31 7.48, 1.21 5.83 C1.11 4.17, 0.72 2.46, 1 1.71 C1.28 0.96, 1.59 1.33, 2.91 1.31 C4.22 1.29, 7.98 1.92, 8.9 1.59 C9.81 1.26, 8.48 -0.64, 8.38 -0.69" stroke="none" stroke-width="0" fill="#868e96"></path><path d="M8.26 0.14 C9.1 0.65, 9.61 1.53, 10.23 2.9 C10.85 4.28, 12.31 7.01, 11.99 8.42 C11.67 9.82, 9.46 10.87, 8.31 11.33 C7.15 11.79, 6.25 11.35, 5.05 11.16 C3.84 10.97, 1.79 11.08, 1.08 10.2 C0.36 9.32, 0.68 7.31, 0.76 5.89 C0.84 4.46, 0.85 2.59, 1.56 1.63 C2.27 0.67, 4.02 0.1, 5.02 0.1 C6.01 0.1, 6.88 1.53, 7.54 1.63 C8.19 1.73, 8.78 0.83, 8.94 0.68 M6.26 -0.25 C7.78 -0.67, 9.11 -1.11, 10.11 -0.01 C11.11 1.09, 12.09 4.69, 12.28 6.35 C12.46 8.02, 11.78 8.81, 11.24 9.96 C10.7 11.11, 10.52 13.17, 9.04 13.25 C7.56 13.33, 3.59 11.3, 2.35 10.45 C1.11 9.59, 1.93 9.07, 1.61 8.13 C1.29 7.19, 0.59 5.94, 0.41 4.82 C0.24 3.69, -0.38 2.07, 0.59 1.39 C1.56 0.71, 5.62 1.17, 6.24 0.72 C6.85 0.28, 4.48 -1.36, 4.27 -1.29" stroke="#000000" stroke-width="1" fill="none"></path></g><g transform="translate(685.6581748333999 175.60454329244857) rotate(0 60.29874496153468 11.797580535952449)"><text x="60.29874496153468" y="16.595161071904883" font-family="Virgil, Segoe UI Emoji" font-size="17.4778970902999px" fill="#000000" text-anchor="middle" style="white-space: pre;" direction="ltr">Relational DB</text></g><g transform="translate(31.006352855257205 170.39524675267091) rotate(0 45.01491470114797 19.743383640854375)"><text x="0" y="27.486767281708744" font-family="Virgil, Segoe UI Emoji" font-size="31.589413825366996px" fill="#000000" text-anchor="start" style="white-space: pre;" direction="ltr">Users</text></g><g stroke-linecap="round" transform="translate(94.88459688308512 64.1602955067849) rotate(0 15.597544455219008 13.647851398316675)"><path d="M3.84 4.66 C3.84 4.66, 3.84 4.66, 3.84 4.66 M3.84 4.66 C3.84 4.66, 3.84 4.66, 3.84 4.66 M2 18.96 C8.16 11.88, 14.32 4.79, 18.4 0.1 M2 18.96 C8.26 11.76, 14.52 4.56, 18.4 0.1 M6.73 25.72 C12.5 19.08, 18.27 12.45, 25.75 3.84 M6.73 25.72 C11.12 20.67, 15.51 15.62, 25.75 3.84 M16.04 27.2 C20.88 21.64, 25.71 16.08, 31.13 9.84 M16.04 27.2 C21.3 21.15, 26.56 15.1, 31.13 9.84 M5.56 24.09 C5.56 24.09, 5.56 24.09, 5.56 24.09 M5.56 24.09 C5.56 24.09, 5.56 24.09, 5.56 24.09 M19.86 25.93 C15.65 22.26, 11.43 18.6, 1.75 10.18 M19.86 25.93 C15.61 22.23, 11.36 18.54, 1.75 10.18 M27.38 21.86 C20.49 15.87, 13.61 9.89, 5.49 2.83 M27.38 21.86 C21.57 16.81, 15.76 11.76, 5.49 2.83 M31.87 15.16 C27.98 11.78, 24.1 8.4, 13.76 -0.58 M31.87 15.16 C27.64 11.49, 23.42 7.81, 13.76 -0.58" stroke="#ced4da" stroke-width="1" fill="none"></path><path d="M31.2 13.65 C31.2 14.44, 31.11 15.24, 30.96 16.02 C30.8 16.8, 30.56 17.57, 30.25 18.32 C29.95 19.06, 29.56 19.79, 29.11 20.47 C28.65 21.16, 28.13 21.82, 27.55 22.42 C26.97 23.03, 26.32 23.59, 25.62 24.1 C24.93 24.61, 24.18 25.07, 23.4 25.47 C22.61 25.86, 21.78 26.2, 20.93 26.47 C20.08 26.74, 19.2 26.95, 18.31 27.09 C17.42 27.23, 16.5 27.3, 15.6 27.3 C14.69 27.3, 13.78 27.23, 12.89 27.09 C12 26.95, 11.11 26.74, 10.26 26.47 C9.41 26.2, 8.58 25.86, 7.8 25.47 C7.02 25.07, 6.26 24.61, 5.57 24.1 C4.88 23.59, 4.23 23.03, 3.65 22.42 C3.07 21.82, 2.54 21.16, 2.09 20.47 C1.64 19.79, 1.25 19.06, 0.94 18.32 C0.63 17.57, 0.39 16.8, 0.24 16.02 C0.08 15.24, 0 14.44, 0 13.65 C0 12.86, 0.08 12.06, 0.24 11.28 C0.39 10.5, 0.63 9.72, 0.94 8.98 C1.25 8.24, 1.64 7.51, 2.09 6.82 C2.54 6.14, 3.07 5.48, 3.65 4.88 C4.23 4.27, 4.88 3.7, 5.57 3.19 C6.26 2.69, 7.02 2.22, 7.8 1.83 C8.58 1.43, 9.41 1.09, 10.26 0.82 C11.11 0.55, 12 0.34, 12.89 0.21 C13.78 0.07, 14.69 0, 15.6 0 C16.5 0, 17.42 0.07, 18.31 0.21 C19.2 0.34, 20.08 0.55, 20.93 0.82 C21.78 1.09, 22.61 1.43, 23.4 1.83 C24.18 2.22, 24.93 2.69, 25.62 3.19 C26.32 3.7, 26.97 4.27, 27.55 4.88 C28.13 5.48, 28.65 6.14, 29.11 6.82 C29.56 7.51, 29.95 8.24, 30.25 8.98 C30.56 9.72, 30.8 10.5, 30.96 11.28 C31.11 12.06, 31.16 13.25, 31.2 13.65 C31.23 14.04, 31.23 13.25, 31.2 13.65" stroke="#000000" stroke-width="2" fill="none"></path></g><g stroke-linecap="round" transform="translate(26.67724926243534 65.08123398205777) rotate(0 15.597544455219008 13.647851398316675)"><path d="M3.84 4.66 C3.84 4.66, 3.84 4.66, 3.84 4.66 M3.84 4.66 C3.84 4.66, 3.84 4.66, 3.84 4.66 M2 18.96 C7.51 12.63, 13.02 6.29, 18.4 0.1 M2 18.96 C5.95 14.43, 9.89 9.89, 18.4 0.1 M6.73 25.72 C11.52 20.21, 16.32 14.69, 25.75 3.84 M6.73 25.72 C10.72 21.13, 14.71 16.54, 25.75 3.84 M16.04 27.2 C20.69 21.85, 25.34 16.5, 31.13 9.84 M16.04 27.2 C19.28 23.48, 22.51 19.76, 31.13 9.84 M5.56 24.09 C5.56 24.09, 5.56 24.09, 5.56 24.09 M5.56 24.09 C5.56 24.09, 5.56 24.09, 5.56 24.09 M19.86 25.93 C14.81 21.53, 9.76 17.14, 1.75 10.18 M19.86 25.93 C12.73 19.72, 5.59 13.52, 1.75 10.18 M27.38 21.86 C20.08 15.51, 12.78 9.17, 5.49 2.83 M27.38 21.86 C20.84 16.18, 14.31 10.5, 5.49 2.83 M31.87 15.16 C25.52 9.64, 19.17 4.12, 13.76 -0.58 M31.87 15.16 C27.3 11.19, 22.73 7.22, 13.76 -0.58" stroke="#ced4da" stroke-width="1" fill="none"></path><path d="M31.2 13.65 C31.2 14.44, 31.11 15.24, 30.96 16.02 C30.8 16.8, 30.56 17.57, 30.25 18.32 C29.95 19.06, 29.56 19.79, 29.11 20.47 C28.65 21.16, 28.13 21.82, 27.55 22.42 C26.97 23.03, 26.32 23.59, 25.62 24.1 C24.93 24.61, 24.18 25.07, 23.4 25.47 C22.61 25.86, 21.78 26.2, 20.93 26.47 C20.08 26.74, 19.2 26.95, 18.31 27.09 C17.42 27.23, 16.5 27.3, 15.6 27.3 C14.69 27.3, 13.78 27.23, 12.89 27.09 C12 26.95, 11.11 26.74, 10.26 26.47 C9.41 26.2, 8.58 25.86, 7.8 25.47 C7.02 25.07, 6.26 24.61, 5.57 24.1 C4.88 23.59, 4.23 23.03, 3.65 22.42 C3.07 21.82, 2.54 21.16, 2.09 20.47 C1.64 19.79, 1.25 19.06, 0.94 18.32 C0.63 17.57, 0.39 16.8, 0.24 16.02 C0.08 15.24, 0 14.44, 0 13.65 C0 12.86, 0.08 12.06, 0.24 11.28 C0.39 10.5, 0.63 9.72, 0.94 8.98 C1.25 8.24, 1.64 7.51, 2.09 6.82 C2.54 6.14, 3.07 5.48, 3.65 4.88 C4.23 4.27, 4.88 3.7, 5.57 3.19 C6.26 2.69, 7.02 2.22, 7.8 1.83 C8.58 1.43, 9.41 1.09, 10.26 0.82 C11.11 0.55, 12 0.34, 12.89 0.21 C13.78 0.07, 14.69 0, 15.6 0 C16.5 0, 17.42 0.07, 18.31 0.21 C19.2 0.34, 20.08 0.55, 20.93 0.82 C21.78 1.09, 22.61 1.43, 23.4 1.83 C24.18 2.22, 24.93 2.69, 25.62 3.19 C26.32 3.7, 26.97 4.27, 27.55 4.88 C28.13 5.48, 28.65 6.14, 29.11 6.82 C29.56 7.51, 29.95 8.24, 30.25 8.98 C30.56 9.72, 30.8 10.5, 30.96 11.28 C31.11 12.06, 31.16 13.25, 31.2 13.65 C31.23 14.04, 31.23 13.25, 31.2 13.65" stroke="#000000" stroke-width="2" fill="none"></path></g><g stroke-linecap="round"><g transform="translate(43.18559263432155 158.161077735763) rotate(0 34.60373870356676 -29.21080745048704)" fill-rule="evenodd"><path d="M12.38 -46.21 C12.38 -46.21, 12.38 -46.21, 12.38 -46.21 M12.38 -46.21 C12.38 -46.21, 12.38 -46.21, 12.38 -46.21 M6.61 -27.38 C16.66 -38.93, 26.7 -50.49, 32.85 -57.57 M6.61 -27.38 C14.15 -36.05, 21.68 -44.72, 32.85 -57.57 M4.78 -13.07 C18.49 -28.85, 32.21 -44.63, 41.51 -55.34 M4.78 -13.07 C14.64 -24.42, 24.5 -35.77, 41.51 -55.34 M2.28 1.99 C15.43 -13.14, 28.58 -28.27, 48.86 -51.6 M2.28 1.99 C13.87 -11.34, 25.45 -24.67, 48.86 -51.6 M12.91 1.95 C28.39 -15.85, 43.86 -33.65, 54.9 -46.35 M12.91 1.95 C23.95 -10.74, 34.99 -23.44, 54.9 -46.35 M23.54 1.92 C35.19 -11.48, 46.84 -24.88, 59.63 -39.59 M23.54 1.92 C31.21 -6.9, 38.88 -15.72, 59.63 -39.59 M34.83 1.13 C46.25 -12, 57.66 -25.14, 63.7 -32.08 M34.83 1.13 C43.14 -8.43, 51.45 -17.99, 63.7 -32.08 M45.46 1.09 C50.48 -4.69, 55.51 -10.47, 67.77 -24.57 M45.46 1.09 C51.92 -6.34, 58.39 -13.78, 67.77 -24.57 M55.43 1.81 C61.69 -5.38, 67.94 -12.58, 72.49 -17.81 M55.43 1.81 C59.72 -3.11, 64 -8.04, 72.49 -17.81 M0 0 C0 0, 0 0, 0 0 M0 0 C0 0, 0 0, 0 0 M12.04 -0.13 C9.37 -2.45, 6.7 -4.77, 1.47 -9.32 M12.04 -0.13 C8.06 -3.59, 4.08 -7.06, 1.47 -9.32 M24.84 0.39 C19.59 -4.17, 14.34 -8.74, 2.95 -18.64 M24.84 0.39 C16.83 -6.57, 8.82 -13.53, 2.95 -18.64 M35.37 -1.06 C23.29 -11.56, 11.21 -22.06, 3.67 -28.61 M35.37 -1.06 C25.63 -9.52, 15.9 -17.98, 3.67 -28.61 M46.65 -1.84 C37.85 -9.5, 29.05 -17.15, 8.92 -34.65 M46.65 -1.84 C38.23 -9.17, 29.8 -16.49, 8.92 -34.65 M56.43 -3.95 C41.11 -17.27, 25.78 -30.59, 11.15 -43.31 M56.43 -3.95 C47.34 -11.85, 38.25 -19.75, 11.15 -43.31 M66.96 -5.39 C54.06 -16.61, 41.16 -27.82, 15.64 -50 M66.96 -5.39 C50.99 -19.28, 35.02 -33.16, 15.64 -50 M69.95 -13.4 C56.99 -24.66, 44.03 -35.92, 21.65 -55.38 M69.95 -13.4 C58.65 -23.22, 47.35 -33.04, 21.65 -55.38 M68.4 -25.34 C58.23 -34.18, 48.06 -43.02, 28.4 -60.11 M68.4 -25.34 C53.32 -38.45, 38.24 -51.56, 28.4 -60.11" stroke="#ced4da" stroke-width="1" fill="none"></path><path d="M0 0 C1.23 -6.49, 2.11 -29.16, 7.4 -38.96 C12.68 -48.76, 23.6 -58.09, 31.7 -58.8 C39.79 -59.51, 50.27 -52.34, 55.99 -43.21 C61.72 -34.09, 75.36 -11.25, 66.03 -4.05 C56.7 3.16, 11.01 -0.67, 0 0 M0 0 C1.23 -6.49, 2.11 -29.16, 7.4 -38.96 C12.68 -48.76, 23.6 -58.09, 31.7 -58.8 C39.79 -59.51, 50.27 -52.34, 55.99 -43.21 C61.72 -34.09, 75.36 -11.25, 66.03 -4.05 C56.7 3.16, 11.01 -0.67, 0 0" stroke="#000000" stroke-width="2" fill="none"></path></g></g><g stroke-linecap="round" transform="translate(59.74811523658559 68.80329523325094) rotate(0 16.90402690238477 14.791023539586774)"><path d="M4.21 4.99 C4.21 4.99, 4.21 4.99, 4.21 4.99 M4.21 4.99 C4.21 4.99, 4.21 4.99, 4.21 4.99 M1.72 20.05 C5.24 16, 8.76 11.95, 18.12 1.18 M1.72 20.05 C8 12.82, 14.28 5.6, 18.12 1.18 M6.45 26.8 C12.29 20.09, 18.13 13.37, 26.78 3.41 M6.45 26.8 C14.04 18.07, 21.63 9.33, 26.78 3.41 M14.45 29.79 C19.38 24.12, 24.32 18.44, 32.82 8.66 M14.45 29.79 C19.64 23.82, 24.82 17.86, 32.82 8.66 M28.36 25.98 C29.18 25.04, 29.99 24.1, 31.64 22.21 M28.36 25.98 C29.57 24.59, 30.78 23.2, 31.64 22.21 M6.27 26.32 C6.27 26.32, 6.27 26.32, 6.27 26.32 M6.27 26.32 C6.27 26.32, 6.27 26.32, 6.27 26.32 M20.57 28.16 C16.4 24.53, 12.24 20.91, 0.95 11.1 M20.57 28.16 C12.81 21.41, 5.05 14.67, 0.95 11.1 M28.84 24.74 C21.89 18.7, 14.94 12.66, 4.69 3.75 M28.84 24.74 C23.4 20.02, 17.96 15.29, 4.69 3.75 M34.09 18.71 C27.75 13.19, 21.41 7.68, 12.2 -0.32 M34.09 18.71 C26.06 11.73, 18.04 4.75, 12.2 -0.32" stroke="#ced4da" stroke-width="1" fill="none"></path><path d="M33.81 14.79 C33.81 15.65, 33.72 16.52, 33.55 17.36 C33.38 18.2, 33.12 19.05, 32.79 19.85 C32.45 20.65, 32.03 21.45, 31.54 22.19 C31.05 22.93, 30.48 23.64, 29.85 24.3 C29.22 24.95, 28.52 25.57, 27.77 26.12 C27.02 26.67, 26.2 27.17, 25.36 27.6 C24.51 28.03, 23.6 28.4, 22.69 28.69 C21.77 28.98, 20.8 29.21, 19.84 29.36 C18.88 29.51, 17.88 29.58, 16.9 29.58 C15.93 29.58, 14.93 29.51, 13.97 29.36 C13.01 29.21, 12.04 28.98, 11.12 28.69 C10.2 28.4, 9.3 28.03, 8.45 27.6 C7.6 27.17, 6.79 26.67, 6.04 26.12 C5.29 25.57, 4.58 24.95, 3.95 24.3 C3.33 23.64, 2.75 22.93, 2.26 22.19 C1.78 21.45, 1.35 20.65, 1.02 19.85 C0.68 19.05, 0.43 18.2, 0.26 17.36 C0.09 16.52, 0 15.65, 0 14.79 C0 13.93, 0.09 13.07, 0.26 12.22 C0.43 11.38, 0.68 10.54, 1.02 9.73 C1.35 8.93, 1.78 8.14, 2.26 7.4 C2.75 6.65, 3.33 5.94, 3.95 5.28 C4.58 4.63, 5.29 4.01, 6.04 3.46 C6.79 2.91, 7.6 2.41, 8.45 1.98 C9.3 1.55, 10.2 1.18, 11.12 0.89 C12.04 0.6, 13.01 0.37, 13.97 0.22 C14.93 0.08, 15.93 0, 16.9 0 C17.88 0, 18.88 0.08, 19.84 0.22 C20.8 0.37, 21.77 0.6, 22.69 0.89 C23.6 1.18, 24.51 1.55, 25.36 1.98 C26.2 2.41, 27.02 2.91, 27.77 3.46 C28.52 4.01, 29.22 4.63, 29.85 5.28 C30.48 5.94, 31.05 6.65, 31.54 7.4 C32.03 8.14, 32.45 8.93, 32.79 9.73 C33.12 10.54, 33.38 11.38, 33.55 12.22 C33.72 13.07, 33.77 14.36, 33.81 14.79 C33.85 15.22, 33.85 14.36, 33.81 14.79" stroke="#000000" stroke-width="2" fill="none"></path></g><g stroke-linecap="round"><g transform="translate(89.2292725959586 104.98177686330365) rotate(0 26.40663125842576 15.67017196820268)" fill-rule="evenodd"><path d="M0 0 C0 0, 0 0, 0 0 M0 0 C0 0, 0 0, 0 0 M6.04 5.25 C10.24 0.41, 14.44 -4.42, 19.16 -9.85 M6.04 5.25 C10.61 -0.01, 15.18 -5.27, 19.16 -9.85 M12.08 10.5 C19.31 2.17, 26.55 -6.15, 30.45 -10.63 M12.08 10.5 C19.32 2.16, 26.56 -6.17, 30.45 -10.63 M15.49 18.76 C20.99 12.44, 26.48 6.12, 39.11 -8.41 M15.49 18.76 C21.03 12.39, 26.57 6.01, 39.11 -8.41 M19.56 26.28 C27.4 17.25, 35.24 8.23, 44.49 -2.4 M19.56 26.28 C26.17 18.67, 32.79 11.05, 44.49 -2.4 M23.63 33.79 C28.84 27.8, 34.05 21.8, 47.9 5.87 M23.63 33.79 C29.29 27.27, 34.96 20.76, 47.9 5.87 M24.42 45.08 C30.54 38.03, 36.67 30.98, 50.66 14.89 M24.42 45.08 C33.82 34.26, 43.23 23.44, 50.66 14.89 M31.11 49.57 C38.37 41.22, 45.62 32.88, 53.42 23.91 M31.11 49.57 C39.03 40.46, 46.95 31.34, 53.42 23.91 M46.99 43.5 C49.77 40.3, 52.55 37.1, 55.52 33.69 M46.99 43.5 C50.02 40.01, 53.04 36.53, 55.52 33.69 M22.94 43.73 C22.94 43.73, 22.94 43.73, 22.94 43.73 M22.94 43.73 C22.94 43.73, 22.94 43.73, 22.94 43.73 M30.45 39.66 C28.57 38.03, 26.69 36.39, 23.66 33.75 M30.45 39.66 C29.07 38.46, 27.68 37.25, 23.66 33.75 M43.25 40.18 C32.93 31.21, 22.62 22.25, 14.57 15.25 M43.25 40.18 C34.76 32.8, 26.27 25.42, 14.57 15.25 M52.27 37.42 C34.12 21.65, 15.97 5.87, 3.97 -4.56 M52.27 37.42 C41.59 28.14, 30.91 18.85, 3.97 -4.56 M54.5 28.76 C41.31 17.3, 28.12 5.83, 9.22 -10.6 M54.5 28.76 C39.91 16.08, 25.32 3.4, 9.22 -10.6 M55.22 18.79 C46.62 11.32, 38.03 3.85, 16.73 -14.67 M55.22 18.79 C40.21 5.74, 25.2 -7.3, 16.73 -14.67 M53.67 6.85 C44.25 -1.35, 34.82 -9.54, 28.01 -15.46 M53.67 6.85 C46.35 0.48, 39.03 -5.88, 28.01 -15.46" stroke="#ced4da" stroke-width="1" fill="none"></path><path d="M0 0 C1.36 -1.47, 5.66 -6.6, 8.17 -8.8 C10.69 -11, 11.95 -12.37, 15.09 -13.2 C18.23 -14.04, 23.68 -14.04, 27.04 -13.83 C30.39 -13.62, 32.9 -13.31, 35.21 -11.95 C37.51 -10.58, 39.3 -8.07, 40.87 -5.66 C42.44 -3.25, 43.38 -0.52, 44.64 2.51 C45.9 5.55, 47.26 9.22, 48.41 12.57 C49.56 15.93, 50.82 19.6, 51.56 22.63 C52.29 25.67, 52.81 28.08, 52.81 30.81 C52.81 33.53, 52.6 36.99, 51.56 38.98 C50.51 40.97, 48.52 41.81, 46.53 42.75 C44.53 43.7, 42.44 44.22, 39.61 44.64 C36.78 45.06, 32.27 45.37, 29.55 45.27 C26.83 45.16, 24.42 45.69, 23.26 44.01 C22.11 42.33, 23.16 37.62, 22.63 35.21 C22.11 32.8, 21.27 31.96, 20.12 29.55 C18.97 27.14, 17.5 24.21, 15.72 20.75 C13.94 17.29, 12.05 12.26, 9.43 8.8 C6.81 5.34, 1.57 1.47, 0 0 M0 0 C1.36 -1.47, 5.66 -6.6, 8.17 -8.8 C10.69 -11, 11.95 -12.37, 15.09 -13.2 C18.23 -14.04, 23.68 -14.04, 27.04 -13.83 C30.39 -13.62, 32.9 -13.31, 35.21 -11.95 C37.51 -10.58, 39.3 -8.07, 40.87 -5.66 C42.44 -3.25, 43.38 -0.52, 44.64 2.51 C45.9 5.55, 47.26 9.22, 48.41 12.57 C49.56 15.93, 50.82 19.6, 51.56 22.63 C52.29 25.67, 52.81 28.08, 52.81 30.81 C52.81 33.53, 52.6 36.99, 51.56 38.98 C50.51 40.97, 48.52 41.81, 46.53 42.75 C44.53 43.7, 42.44 44.22, 39.61 44.64 C36.78 45.06, 32.27 45.37, 29.55 45.27 C26.83 45.16, 24.42 45.69, 23.26 44.01 C22.11 42.33, 23.16 37.62, 22.63 35.21 C22.11 32.8, 21.27 31.96, 20.12 29.55 C18.97 27.14, 17.5 24.21, 15.72 20.75 C13.94 17.29, 12.05 12.26, 9.43 8.8 C6.81 5.34, 1.57 1.47, 0 0" stroke="#000000" stroke-width="2" fill="none"></path></g></g><g stroke-linecap="round"><g transform="translate(60.92707456982123 104.96301922194402) rotate(0 -25.463537284910615 19.259982529865965)" fill-rule="evenodd"><path d="M-39.16 -3.57 C-39.16 -3.57, -39.16 -3.57, -39.16 -3.57 M-39.16 -3.57 C-39.16 -3.57, -39.16 -3.57, -39.16 -3.57 M-44.93 15.27 C-38.06 7.36, -31.19 -0.54, -22.63 -10.39 M-44.93 15.27 C-40.15 9.77, -35.38 4.27, -22.63 -10.39 M-50.05 33.35 C-36.96 18.29, -23.87 3.23, -12 -10.43 M-50.05 33.35 C-39.26 20.94, -28.48 8.53, -12 -10.43 M-47.29 42.37 C-35.57 28.89, -23.86 15.41, -5.3 -5.93 M-47.29 42.37 C-30.74 23.33, -14.2 4.3, -5.3 -5.93 M-41.25 47.62 C-27.47 31.76, -13.69 15.91, 0.08 0.07 M-41.25 47.62 C-28.92 33.43, -16.58 19.24, 0.08 0.07 M-33.9 51.36 C-25.85 42.09, -17.8 32.83, -10.94 24.94 M-33.9 51.36 C-28.11 44.69, -22.32 38.03, -10.94 24.94 M-24.58 52.83 C-22.29 50.19, -20 47.55, -14.09 40.75 M-24.58 52.83 C-22.03 49.9, -19.48 46.96, -14.09 40.75 M-49.92 40.65 C-49.92 40.65, -49.92 40.65, -49.92 40.65 M-49.92 40.65 C-49.92 40.65, -49.92 40.65, -49.92 40.65 M-34.86 43.15 C-39.36 39.23, -43.87 35.31, -49.19 30.68 M-34.86 43.15 C-37.91 40.49, -40.97 37.83, -49.19 30.68 M-16.78 48.26 C-27.02 39.35, -37.27 30.45, -46.97 22.02 M-16.78 48.26 C-25.22 40.92, -33.67 33.58, -46.97 22.02 M-16.06 38.29 C-26.46 29.25, -36.85 20.21, -45.49 12.7 M-16.06 38.29 C-25.28 30.27, -34.5 22.26, -45.49 12.7 M-14.58 28.97 C-22.63 21.97, -30.69 14.97, -41.75 5.35 M-14.58 28.97 C-22.24 22.31, -29.91 15.65, -41.75 5.35 M-11.6 20.96 C-22.06 11.87, -32.52 2.78, -38.77 -2.66 M-11.6 20.96 C-21.23 12.59, -30.87 4.21, -38.77 -2.66 M-7.86 13.61 C-14.03 8.25, -20.2 2.89, -34.27 -9.35 M-7.86 13.61 C-13.89 8.37, -19.92 3.13, -34.27 -9.35 M-4.12 6.26 C-9.96 1.19, -15.79 -3.89, -25.25 -12.11 M-4.12 6.26 C-11.66 -0.29, -19.2 -6.85, -25.25 -12.11 M0.37 -0.43 C-3.33 -3.65, -7.04 -6.88, -12.46 -11.58 M0.37 -0.43 C-3.21 -3.55, -6.79 -6.66, -12.46 -11.58" stroke="#ced4da" stroke-width="1" fill="none"></path><path d="M0 0 C-1.05 -1.15, -4.09 -5.03, -6.29 -6.92 C-8.49 -8.8, -10.06 -10.48, -13.2 -11.32 C-16.35 -12.16, -21.8 -12.16, -25.15 -11.95 C-28.5 -11.74, -31.02 -11.42, -33.32 -10.06 C-35.63 -8.7, -37.41 -6.18, -38.98 -3.77 C-40.55 -1.36, -41.5 1.36, -42.75 4.4 C-44.01 7.44, -45.37 11.11, -46.53 14.46 C-47.68 17.81, -48.94 21.48, -49.67 24.52 C-50.4 27.56, -50.93 29.97, -50.93 32.69 C-50.93 35.42, -50.72 38.88, -49.67 40.87 C-48.62 42.86, -46.53 43.49, -44.64 44.64 C-42.75 45.79, -41.08 46.95, -38.35 47.78 C-35.63 48.62, -31.75 49.36, -28.29 49.67 C-24.83 49.98, -19.6 51.56, -17.6 49.67 C-15.61 47.78, -16.77 41.18, -16.35 38.35 C-15.93 35.52, -15.61 35.21, -15.09 32.69 C-14.57 30.18, -14.46 26.93, -13.2 23.26 C-11.95 19.6, -9.75 14.57, -7.54 10.69 C-5.34 6.81, -1.26 1.78, 0 0 M0 0 C-1.05 -1.15, -4.09 -5.03, -6.29 -6.92 C-8.49 -8.8, -10.06 -10.48, -13.2 -11.32 C-16.35 -12.16, -21.8 -12.16, -25.15 -11.95 C-28.5 -11.74, -31.02 -11.42, -33.32 -10.06 C-35.63 -8.7, -37.41 -6.18, -38.98 -3.77 C-40.55 -1.36, -41.5 1.36, -42.75 4.4 C-44.01 7.44, -45.37 11.11, -46.53 14.46 C-47.68 17.81, -48.94 21.48, -49.67 24.52 C-50.4 27.56, -50.93 29.97, -50.93 32.69 C-50.93 35.42, -50.72 38.88, -49.67 40.87 C-48.62 42.86, -46.53 43.49, -44.64 44.64 C-42.75 45.79, -41.08 46.95, -38.35 47.78 C-35.63 48.62, -31.75 49.36, -28.29 49.67 C-24.83 49.98, -19.6 51.56, -17.6 49.67 C-15.61 47.78, -16.77 41.18, -16.35 38.35 C-15.93 35.52, -15.61 35.21, -15.09 32.69 C-14.57 30.18, -14.46 26.93, -13.2 23.26 C-11.95 19.6, -9.75 14.57, -7.54 10.69 C-5.34 6.81, -1.26 1.78, 0 0" stroke="#000000" stroke-width="2" fill="none"></path></g></g><g stroke-linecap="round" transform="translate(312.21481205043983 10) rotate(0 115.65153872607493 113.42747067365033)"><path d="M0.19 0.66 L231.82 0.63 L232.19 228.68 L0.35 227.76" stroke="none" stroke-width="0" fill="#eeeeee"></path><path d="M-1 -0.43 C80.25 -0.07, 160.36 2.06, 232.86 0.67 M-0.83 -0.52 C91.57 0.45, 182.03 0.26, 232.06 0.41 M231.63 -0.57 C231.04 88.67, 232.25 177.73, 231.83 227.76 M232.08 0.15 C232.51 74.73, 231.22 150.68, 230.76 227.09 M231.04 227.81 C140.52 228.94, 47.9 228.96, -0.81 226.03 M230.81 226.28 C156.98 226.84, 83.22 227.48, -0.15 226.82 M1.45 227.28 C2.98 138.66, 1.51 49.75, -1.61 1 M-0.23 226.86 C-0.86 180.51, -0.84 136.11, -0.16 -0.71" stroke="#000000" stroke-width="1" fill="none"></path></g><g transform="translate(387.28551208469 45.77016743832718) rotate(0 41.5 20)"><text x="41.5" y="14" font-family="Virgil, Segoe UI Emoji" font-size="16px" fill="#000000" text-anchor="middle" style="white-space: pre;" direction="ltr">Application</text><text x="41.5" y="34" font-family="Virgil, Segoe UI Emoji" font-size="16px" fill="#000000" text-anchor="middle" style="white-space: pre;" direction="ltr">server</text></g><g stroke-linecap="round" transform="translate(418.6188512419503 100.04420677587444) rotate(0 12.13973147004458 12.819401851145528)"><path d="M3.97 3.45 C3.97 3.45, 3.97 3.45, 3.97 3.45 M3.97 3.45 C3.97 3.45, 3.97 3.45, 3.97 3.45 M0.36 12.44 C7.52 7.67, 11.62 4.18, 13.69 0.36 M2.25 12.22 C3.78 8.86, 7.51 5.87, 12.17 0.47 M1.59 19.04 C8.95 12.22, 14.47 7.02, 14.74 3.71 M2 18.17 C5.01 13.83, 9.45 8.37, 15.19 1.01 M3.95 20.69 C8.26 13.19, 17.22 8.61, 20.92 4.2 M2.99 22.82 C9.32 15.57, 16.46 8.3, 19.74 2.93 M6.63 25.57 C12.89 18.99, 20.18 11.01, 21.62 7.08 M7.42 25.41 C10.42 18.94, 15.85 13.37, 22.46 5.5 M11.25 28.57 C11.92 24.55, 16.8 20.26, 24.58 11.19 M9.03 27.01 C14.99 22.72, 17.56 17.58, 24.97 9.43 M15.55 24.43 C19.11 21.23, 22.33 17.81, 27.29 12.23 M17.62 25.79 C20.4 21.59, 22.42 19.09, 26.78 13.59" stroke="#7950f2" stroke-width="0.5" fill="none"></path><path d="M12.33 -0.4 C14.79 -0.33, 18.99 2.04, 21.09 4.04 C23.19 6.05, 24.55 8.95, 24.9 11.63 C25.26 14.31, 24.71 18, 23.22 20.12 C21.73 22.24, 18.62 23.63, 15.95 24.37 C13.28 25.1, 9.69 25.49, 7.21 24.53 C4.74 23.56, 2.3 20.9, 1.08 18.6 C-0.13 16.29, -0.59 13.27, -0.07 10.7 C0.45 8.13, 1.91 4.78, 4.22 3.17 C6.52 1.57, 11.8 1.49, 13.75 1.09 C15.7 0.69, 15.86 0.6, 15.92 0.8 M12.04 1.3 C14.47 1.19, 17.84 1.97, 19.88 3.26 C21.91 4.54, 23.81 6.34, 24.24 9.02 C24.67 11.7, 23.59 16.86, 22.43 19.33 C21.27 21.81, 19.86 23.03, 17.28 23.87 C14.69 24.71, 9.48 25.08, 6.92 24.38 C4.35 23.68, 2.82 21.75, 1.91 19.67 C1 17.59, 1.03 14.49, 1.47 11.91 C1.9 9.33, 2.87 6.37, 4.53 4.18 C6.18 1.99, 10.27 -0.66, 11.41 -1.22 C12.55 -1.78, 11.03 0.55, 11.36 0.8" stroke="#000000" stroke-width="1" fill="none"></path></g><g stroke-linecap="round" transform="translate(418.33977244106586 136.02589234251678) rotate(0 12.13973147004458 12.819401851145528)"><path d="M5.21 3.2 C5.21 3.2, 5.21 3.2, 5.21 3.2 M5.21 3.2 C5.21 3.2, 5.21 3.2, 5.21 3.2 M4.3 12.13 C7.62 9.14, 9 5.23, 12.56 -0.58 M2.47 11.85 C5.38 8.19, 7.79 5, 13.47 1.15 M0.54 17.42 C8.61 13.93, 13.82 7.52, 17.96 2.16 M1.64 19.4 C6.96 14.26, 10.16 9.05, 16.97 1.52 M5.24 22.69 C11.62 15.68, 13.01 12, 20.48 4.48 M4.09 21.52 C10.61 14.43, 15.83 7.94, 19.87 3.56 M6.39 25.86 C11.36 21.23, 13.51 18.75, 22.18 7.94 M8.32 25.53 C11.69 19.66, 17.42 13.38, 22.14 8.37 M9.99 26.57 C15.16 21.22, 19.37 16.39, 24.19 10.53 M11.41 27.18 C15.75 21.68, 20.5 15.55, 25.09 10.45 M18.06 27.82 C19.06 22.04, 26.25 16.28, 29.07 12.46 M17.41 27.01 C20.83 21.34, 25.44 16.05, 28.09 13.52" stroke="#7950f2" stroke-width="0.5" fill="none"></path><path d="M12.88 0.3 C15.27 0.19, 18.35 1.83, 20.38 3.7 C22.41 5.58, 24.71 8.81, 25.07 11.54 C25.43 14.27, 24.27 17.86, 22.54 20.08 C20.81 22.3, 17.21 24.05, 14.7 24.87 C12.2 25.7, 9.85 26.23, 7.51 25.01 C5.17 23.8, 1.93 20.1, 0.67 17.58 C-0.59 15.05, -0.78 12.22, -0.05 9.85 C0.68 7.49, 2.18 4.82, 5.07 3.37 C7.95 1.92, 14.7 1.27, 17.24 1.17 C19.77 1.07, 20.61 2.7, 20.29 2.8 M13.16 -0.5 C15.36 0.15, 19.77 3.42, 21.42 5.73 C23.06 8.04, 22.89 10.96, 23.04 13.36 C23.2 15.76, 23.78 18.17, 22.34 20.13 C20.89 22.1, 16.87 24.36, 14.38 25.14 C11.89 25.92, 9.68 26.4, 7.41 24.82 C5.15 23.24, 1.99 18.27, 0.78 15.64 C-0.43 13.01, -0.53 11.37, 0.16 9.02 C0.84 6.67, 2.74 3, 4.89 1.55 C7.03 0.1, 11.7 0.41, 13.03 0.32 C14.37 0.23, 12.45 1.01, 12.87 1.01" stroke="#000000" stroke-width="1" fill="none"></path></g><g stroke-linecap="round" transform="translate(417.76103542870624 175.5123614992114) rotate(0 12.13973147004458 12.819401851145528)"><path d="M0.68 8.54 C0.68 8.54, 0.68 8.54, 0.68 8.54 M0.68 8.54 C0.68 8.54, 0.68 8.54, 0.68 8.54 M0.02 16.88 C4.01 11.27, 7.09 8.44, 8.48 4 M-0.25 15.45 C2.67 11.24, 6.05 8.46, 10.22 4.83 M0.53 20.41 C7.66 15.23, 11.85 10.06, 16.96 1.13 M2.51 19.92 C5.08 15.56, 7.59 12.17, 16.32 1.75 M6.19 23.43 C9.02 15.04, 15.18 11.34, 21.19 5.74 M5.02 21.5 C9.99 14.87, 15.57 8.55, 20.26 3.52 M9.01 25.06 C13.7 17.61, 20.56 11.26, 23.53 7.48 M8.68 23.51 C11.69 20.46, 14.31 16.35, 23.96 7.02 M10.76 26.34 C13.37 22.86, 16.51 18.89, 24.45 12.65 M11.37 26.19 C17.35 19.37, 22.69 14.28, 24.37 11.65" stroke="#7950f2" stroke-width="0.5" fill="none"></path><path d="M14.77 0.09 C17.11 0.59, 20.14 3.44, 21.74 5.65 C23.35 7.87, 24.45 10.93, 24.39 13.4 C24.34 15.86, 23.18 18.37, 21.41 20.43 C19.63 22.49, 16.26 25.29, 13.75 25.75 C11.23 26.21, 8.65 24.73, 6.31 23.2 C3.98 21.67, 0.64 19.04, -0.26 16.55 C-1.17 14.07, -0.34 10.67, 0.9 8.29 C2.14 5.9, 4.48 3.36, 7.18 2.25 C9.88 1.14, 15.2 1.73, 17.09 1.62 C18.97 1.51, 18.69 1.43, 18.51 1.58 M17.24 1.49 C19.83 2.59, 23.38 4.18, 24.53 6.91 C25.67 9.64, 25.27 15.02, 24.09 17.87 C22.91 20.71, 19.81 22.47, 17.47 23.98 C15.12 25.49, 12.25 27.35, 10 26.91 C7.75 26.48, 5.88 23.77, 3.97 21.37 C2.06 18.97, -1.37 15.49, -1.48 12.52 C-1.58 9.55, 1.48 5.82, 3.33 3.56 C5.18 1.3, 7.17 -0.48, 9.62 -1.04 C12.08 -1.61, 16.61 -0.56, 18.07 0.15 C19.53 0.86, 18.7 2.86, 18.39 3.2" stroke="#000000" stroke-width="1" fill="none"></path></g><g stroke-linecap="round"><g transform="translate(178.91187962978972 112.51705763644821) rotate(0 109.76118376351269 0.0681162670223614)"><path d="M0.07 -0.97 C36.56 -1.17, 182.08 -0.52, 218.48 -0.36 M-1.35 1.14 C35.58 1.05, 184.42 0.99, 220.87 1.03" stroke="#000000" stroke-width="1" fill="none"></path></g><g transform="translate(178.91187962978972 112.51705763644821) rotate(0 109.76118376351269 0.0681162670223614)"><path d="M191.07 10.28 C199.47 7.52, 207.43 4.51, 220.82 -0.13 M193.65 11.97 C201.11 7.89, 207.62 6.05, 220.17 1.56" stroke="#000000" stroke-width="1" fill="none"></path></g><g transform="translate(178.91187962978972 112.51705763644821) rotate(0 109.76118376351269 0.0681162670223614)"><path d="M191.07 -10.25 C199.62 -7.66, 207.58 -5.33, 220.82 -0.13 M193.65 -8.55 C201.06 -7.21, 207.57 -3.62, 220.17 1.56" stroke="#000000" stroke-width="1" fill="none"></path></g></g><g stroke-linecap="round"><g transform="translate(463.8172457746384 109.66386374319728) rotate(0 94.23697448827454 -0.7097815061868857)"><path d="M-1.06 0.51 C30.63 0.49, 157.86 0.13, 189.54 -0.16 M0.58 -0.27 C32.13 -0.63, 156.59 -1.95, 188.4 -1.93" stroke="#000000" stroke-width="1" fill="none"></path></g><g transform="translate(463.8172457746384 109.66386374319728) rotate(0 94.23697448827454 -0.7097815061868857)"><path d="M161.11 7.89 C168.42 4.67, 173.64 4.95, 187.57 -1.7 M160.58 7.56 C168.95 5.54, 177.63 2.04, 188.22 -1.49" stroke="#000000" stroke-width="1" fill="none"></path></g><g transform="translate(463.8172457746384 109.66386374319728) rotate(0 94.23697448827454 -0.7097815061868857)"><path d="M161 -12.63 C168.33 -10.72, 173.58 -5.32, 187.57 -1.7 M160.46 -12.97 C168.89 -8.95, 177.61 -6.41, 188.22 -1.49" stroke="#000000" stroke-width="1" fill="none"></path></g></g><g transform="translate(86.06423149588625 291.41590619129846) rotate(0 323.00000000000006 50)"><text x="323" y="18" font-family="Virgil, Segoe UI Emoji" font-size="20px" fill="#000000" text-anchor="middle" style="white-space: pre;" direction="ltr">At this point we have the client waiting, the thread waiting and </text><text x="323" y="43" font-family="Virgil, Segoe UI Emoji" font-size="20px" fill="#000000" text-anchor="middle" style="white-space: pre;" direction="ltr">doing nothing, while:</text><text x="323" y="68" font-family="Virgil, Segoe UI Emoji" font-size="20px" fill="#000000" text-anchor="middle" style="white-space: pre;" direction="ltr">1. the request is made to the DB,</text><text x="323" y="93" font-family="Virgil, Segoe UI Emoji" font-size="20px" fill="#000000" text-anchor="middle" style="white-space: pre;" direction="ltr">2. the query is executed,</text></g></svg>