<svg version="1.1" xmlns="http://www.w3.org/2000/svg" viewBox="0 0 969.1206051828282 429.62974969897664" width="969.1206051828282" height="429.62974969897664">
  <!-- svg-source:excalidraw -->
  
  <defs>
    <style>
      @font-face {
        font-family: "Virgil";
        src: url("https://excalidraw.com/Virgil.woff2");
      }
      @font-face {
        font-family: "Cascadia";
        src: url("https://excalidraw.com/Cascadia.woff2");
      }
    </style>
  </defs>
  <rect x="0" y="0" width="969.1206051828282" height="429.62974969897664" fill="#ffffff"></rect><g stroke-linecap="round"><g transform="translate(610.5462701750902 121.99866596816423) rotate(0 49.70624054492089 53.654757921608024)" fill-rule="evenodd"><path d="M1.36 -1.76 L1.28 110.46 L2.37 112.91 L14.34 117.83 L21.06 115.73 L54.35 117.36 L82.7 116.36 L89.85 114.39 L100.66 111.23 L98.35 -3.36 L98.57 0.33 L95.07 -3.98 L87.2 -5.16 L48.64 -9.95 L24.94 -7.91 L11.52 -6 L4.49 -3.04 L-1.74 -1.01" stroke="none" stroke-width="0" fill="#ced4da" fill-rule="evenodd"></path><path d="M0.84 -0.31 C0.78 15.97, 0.5 80.28, 0.26 98.46 C0.01 116.63, -1.24 106.41, -0.62 108.77 C0 111.13, -0.15 110.94, 3.97 112.6 C8.09 114.25, 16.05 117.59, 24.09 118.7 C32.13 119.81, 42.59 119.66, 52.2 119.27 C61.81 118.87, 74.28 117.35, 81.73 116.33 C89.17 115.32, 93.72 114.69, 96.88 113.19 C100.04 111.69, 100.1 109.7, 100.68 107.32 C101.27 104.93, 100.72 115.54, 100.38 98.9 C100.03 82.26, 98.84 23.89, 98.62 7.49 C98.39 -8.91, 100.12 2.49, 99.01 0.49 C97.89 -1.51, 95.41 -3.28, 91.93 -4.51 C88.45 -5.75, 85.39 -5.81, 78.12 -6.9 C70.85 -8, 57.2 -10.86, 48.33 -11.08 C39.45 -11.29, 32.26 -9.46, 24.88 -8.19 C17.49 -6.93, 8.26 -4.83, 4.01 -3.49 C-0.24 -2.14, 0.21 -0.78, -0.63 -0.13 C-1.47 0.52, -1.24 0.43, -1.02 0.42 M-0.19 -1.51 C-0.45 14.36, -0.48 78.15, -0.73 96.75 C-0.99 115.35, -2.44 107.35, -1.72 110.09 C-1 112.83, -0.55 112.2, 3.6 113.19 C7.74 114.17, 14.93 115.11, 23.16 115.99 C31.4 116.86, 43.2 118.02, 53.03 118.42 C62.85 118.81, 74.42 119.19, 82.11 118.36 C89.8 117.53, 96.25 114.97, 99.15 113.45 C102.05 111.93, 99.14 111.76, 99.5 109.25 C99.86 106.73, 101.51 115.24, 101.31 98.38 C101.11 81.53, 98.95 24.41, 98.31 8.1 C97.66 -8.21, 98.56 2.71, 97.46 0.53 C96.35 -1.65, 94.51 -3.81, 91.68 -4.99 C88.84 -6.16, 87.64 -5.36, 80.45 -6.54 C73.27 -7.71, 58.18 -11.43, 48.58 -12.04 C38.98 -12.66, 30.51 -11.84, 22.85 -10.23 C15.19 -8.62, 6.18 -4.12, 2.61 -2.38 C-0.96 -0.64, 1.75 -0.34, 1.44 0.2 C1.12 0.75, 0.7 0.67, 0.71 0.9" stroke="#000000" stroke-width="1" fill="none"></path></g></g><g stroke-linecap="round"><g transform="translate(611.2266232056749 196.18048774275576) rotate(0 50.52182929506432 5.168988928595951)"><path d="M-0.31 -0.08 C0.14 0.42, 1.05 2.62, 3.44 3.8 C5.83 4.97, 9.9 5.69, 14.03 6.97 C18.15 8.24, 21.54 11.02, 28.2 11.44 C34.86 11.86, 45.18 9.95, 53.97 9.49 C62.77 9.03, 73.93 9.72, 80.97 8.68 C88.02 7.64, 92.84 4.63, 96.24 3.26 C99.63 1.88, 100.8 1, 101.35 0.42 M1.73 -1.16 C2.02 -0.59, 0.99 3.53, 2.92 5 C4.84 6.47, 9.09 6.92, 13.26 7.66 C17.43 8.4, 21.3 9.15, 27.93 9.43 C34.57 9.7, 44.56 9.64, 53.06 9.3 C61.55 8.96, 71.66 8.06, 78.91 7.38 C86.17 6.69, 92.92 6.34, 96.59 5.2 C100.26 4.07, 100.16 1.67, 100.92 0.57" stroke="#000000" stroke-width="1" fill="none"></path></g></g><g stroke-linecap="round"><g transform="translate(609.8866960986815 158.5689672101018) rotate(0 49.78632162501003 4.9696035191349495)"><path d="M-0.08 0.8 C0.12 1.59, -0.15 3.37, 2.01 4.43 C4.16 5.49, 8.14 6, 12.84 7.17 C17.54 8.34, 23.72 10.83, 30.21 11.46 C36.7 12.09, 43.48 11.44, 51.8 10.97 C60.11 10.49, 72.73 9.6, 80.11 8.62 C87.5 7.65, 92.58 6.73, 96.08 5.1 C99.59 3.46, 100.4 -0.22, 101.15 -1.17 M-1.57 0.18 C-1.06 1.2, 1.6 4.67, 4.39 5.97 C7.17 7.27, 10.68 7.4, 15.11 7.98 C19.55 8.56, 24.62 8.87, 31 9.46 C37.38 10.06, 45.02 11.3, 53.4 11.55 C61.78 11.8, 74.11 12.15, 81.26 10.95 C88.42 9.75, 93.13 6.48, 96.36 4.35 C99.58 2.21, 100.17 -0.79, 100.61 -1.86" stroke="#000000" stroke-width="1" fill="none"></path></g></g><g stroke-linecap="round" transform="translate(608.5128874451092 112.73699785040577) rotate(0 49.733191111757606 10.058163744193308)"><path d="M69.3 1.26 C78 1.88, 86.47 3.46, 91.49 5.15 C96.51 6.84, 100.22 9.58, 99.42 11.4 C98.63 13.22, 93.1 14.77, 86.73 16.07 C80.36 17.38, 70.62 18.72, 61.18 19.23 C51.75 19.74, 39.19 19.83, 30.13 19.13 C21.08 18.43, 12.01 16.8, 6.85 15.03 C1.7 13.26, -1.72 10.48, -0.79 8.49 C0.14 6.5, 6.11 4.35, 12.43 3.08 C18.76 1.82, 27 1.35, 37.18 0.91 C47.36 0.47, 67.14 0.19, 73.53 0.45 C79.92 0.72, 76.17 2.12, 75.53 2.5 M37.84 0.69 C46.63 0.39, 60.97 0.73, 69.98 1.47 C79 2.2, 87 3.59, 91.92 5.1 C96.84 6.61, 100.1 8.4, 99.51 10.51 C98.92 12.62, 94.98 16.16, 88.39 17.75 C81.8 19.34, 69.82 19.93, 59.98 20.05 C50.14 20.18, 37.95 19.06, 29.32 18.49 C20.7 17.91, 12.89 17.99, 8.23 16.59 C3.57 15.18, 0.93 12.09, 1.36 10.06 C1.79 8.04, 4.59 5.96, 10.79 4.43 C16.99 2.89, 33.87 1.37, 38.56 0.84 C43.25 0.3, 38.69 1.12, 38.93 1.21" stroke="none" stroke-width="0" fill="#fff"></path><path d="M50.58 0.88 C59.85 0.93, 70.36 1.29, 78.03 2.22 C85.7 3.15, 93.54 4.51, 96.61 6.49 C99.68 8.47, 99.26 12.25, 96.45 14.11 C93.64 15.97, 87.49 16.66, 79.75 17.64 C72.01 18.63, 60.05 20.02, 50.01 20.01 C39.97 20.01, 27.48 18.63, 19.51 17.61 C11.54 16.59, 5.19 15.59, 2.21 13.9 C-0.76 12.22, -1.22 9.36, 1.66 7.51 C4.55 5.66, 10.76 4.16, 19.5 2.81 C28.24 1.45, 47.45 -0.3, 54.11 -0.61 C60.77 -0.92, 59.56 0.59, 59.47 0.96 M38.38 1.1 C47.18 0.91, 59.54 0.96, 68.26 1.76 C76.97 2.57, 85.24 4.3, 90.67 5.92 C96.1 7.54, 101.16 9.48, 100.83 11.48 C100.5 13.48, 94.99 16.76, 88.7 17.9 C82.42 19.04, 72.97 17.95, 63.11 18.33 C53.24 18.7, 38.99 20.58, 29.53 20.14 C20.06 19.71, 11.28 17.74, 6.31 15.72 C1.35 13.7, -1.14 9.92, -0.26 8.03 C0.62 6.14, 5.11 5.84, 11.59 4.36 C18.06 2.87, 34.39 -0.16, 38.58 -0.89 C42.76 -1.63, 36.52 -0.18, 36.68 -0.05" stroke="#000000" stroke-width="1" fill="none"></path></g><g stroke-linecap="round" transform="translate(655.899867838573 144.52138295666185) rotate(0 7.288875891128669 7.910661630412704)"><path d="M4.9 0.88 C6.29 0.22, 7.78 0.54, 9.25 0.84 C10.71 1.14, 12.75 1.38, 13.69 2.67 C14.64 3.96, 15.02 6.94, 14.92 8.59 C14.81 10.24, 14.32 11.39, 13.09 12.55 C11.85 13.71, 9.27 15.34, 7.52 15.55 C5.78 15.76, 3.84 14.82, 2.59 13.82 C1.35 12.82, 0.42 11.24, 0.05 9.56 C-0.33 7.88, -0.37 5.18, 0.34 3.74 C1.06 2.3, 3.44 1.64, 4.34 0.92 C5.25 0.19, 5.51 -0.78, 5.79 -0.63 M3.54 1.51 C4.95 0.93, 7.57 1.61, 9.09 1.96 C10.62 2.3, 11.74 2.16, 12.71 3.57 C13.67 4.98, 14.89 8.72, 14.88 10.4 C14.87 12.09, 13.88 12.76, 12.66 13.7 C11.44 14.63, 9.29 15.83, 7.55 16.03 C5.81 16.23, 3.29 16.21, 2.24 14.88 C1.18 13.55, 1.42 10.06, 1.25 8.03 C1.07 5.99, 0.74 3.78, 1.19 2.68 C1.64 1.58, 3.12 1.58, 3.95 1.44 C4.78 1.3, 5.83 2.05, 6.15 1.82" stroke="none" stroke-width="0" fill="#868e96"></path><path d="M4.72 0.02 C6.16 -1.05, 7.76 -0.65, 9.07 -0.25 C10.37 0.15, 11.47 0.89, 12.55 2.42 C13.63 3.95, 15.59 7.09, 15.52 8.92 C15.46 10.76, 13.39 12.47, 12.18 13.44 C10.97 14.41, 9.79 14.58, 8.24 14.74 C6.69 14.9, 4.06 15.27, 2.87 14.42 C1.68 13.57, 1.4 11.37, 1.1 9.63 C0.8 7.89, 0.35 5.52, 1.08 3.99 C1.8 2.46, 4.85 0.89, 5.46 0.45 C6.07 0.02, 4.74 1.29, 4.74 1.39 M8.08 0.85 C9.79 1.19, 12.94 2.19, 14.18 3.29 C15.43 4.4, 15.67 5.51, 15.55 7.49 C15.43 9.46, 14.66 13.6, 13.47 15.15 C12.28 16.7, 9.95 16.68, 8.42 16.78 C6.89 16.88, 5.92 17.17, 4.3 15.77 C2.68 14.36, -0.84 10.42, -1.3 8.32 C-1.76 6.23, 0.53 4.56, 1.54 3.22 C2.55 1.87, 3.65 0.77, 4.74 0.26 C5.83 -0.24, 7.17 0.02, 8.07 0.17 C8.96 0.33, 10.13 1.28, 10.11 1.2" stroke="#000000" stroke-width="1" fill="none"></path></g><g stroke-linecap="round" transform="translate(656.3558459902316 178.56519053617205) rotate(0 7.288875891128669 7.910661630412704)"><path d="M5.87 0.34 C7.44 -0.14, 10.06 0.6, 11.32 1.43 C12.58 2.26, 12.94 3.73, 13.44 5.31 C13.94 6.9, 14.85 9.47, 14.32 10.93 C13.79 12.4, 11.66 13.42, 10.27 14.12 C8.89 14.82, 7.54 15.33, 6.03 15.14 C4.53 14.95, 2.32 14.18, 1.23 12.97 C0.14 11.76, -0.41 9.67, -0.51 7.88 C-0.61 6.09, -0.58 3.61, 0.62 2.23 C1.82 0.86, 5.86 -0.12, 6.69 -0.35 C7.52 -0.58, 5.56 0.75, 5.61 0.84 M6.07 -0.31 C7.52 -0.85, 10.29 -1.15, 11.5 -0.32 C12.71 0.5, 12.66 2.85, 13.33 4.61 C14 6.37, 15.83 8.61, 15.53 10.25 C15.22 11.88, 12.87 13.55, 11.49 14.42 C10.11 15.29, 8.6 15.37, 7.24 15.46 C5.88 15.54, 4.73 15.97, 3.33 14.93 C1.92 13.89, -0.59 11.23, -1.17 9.22 C-1.75 7.21, -1.35 4.12, -0.16 2.86 C1.04 1.61, 4.93 1.93, 6 1.68 C7.08 1.43, 6.6 1.29, 6.28 1.36" stroke="none" stroke-width="0" fill="#868e96"></path><path d="M3.47 0.95 C4.59 -0.01, 7.41 -0.72, 8.96 -0.13 C10.52 0.47, 11.74 3.11, 12.79 4.51 C13.85 5.91, 15.35 6.77, 15.31 8.28 C15.27 9.79, 13.99 12.4, 12.56 13.56 C11.13 14.72, 8.35 14.98, 6.71 15.22 C5.07 15.46, 3.93 15.81, 2.71 14.99 C1.5 14.17, -0.08 11.92, -0.57 10.29 C-1.06 8.67, -1.07 6.98, -0.22 5.24 C0.63 3.51, 3.51 0.57, 4.53 -0.11 C5.55 -0.79, 5.87 0.86, 5.89 1.18 M6.07 1.04 C7.47 0.94, 9.16 1.02, 10.25 1.83 C11.35 2.64, 11.71 4.39, 12.63 5.88 C13.56 7.38, 15.84 9.15, 15.78 10.8 C15.73 12.46, 13.62 15.26, 12.32 15.84 C11.02 16.42, 9.95 14.56, 8 14.28 C6.05 14, 2.12 15.07, 0.6 14.16 C-0.92 13.25, -1.21 10.83, -1.14 8.79 C-1.07 6.76, -0.08 3.24, 1.01 1.95 C2.1 0.65, 4.51 1.48, 5.4 1.02 C6.28 0.56, 6.48 -0.71, 6.3 -0.8" stroke="#000000" stroke-width="1" fill="none"></path></g><g stroke-linecap="round" transform="translate(657.198426348331 215.9230652402415) rotate(357.5021844865888 7.288875891128669 7.910661630412704)"><path d="M6.72 0.64 C8.14 0.26, 10.56 -0.11, 11.88 0.76 C13.2 1.62, 14.22 4.27, 14.66 5.86 C15.1 7.44, 15.29 8.79, 14.51 10.28 C13.72 11.77, 11.56 14.02, 9.96 14.8 C8.36 15.58, 6.37 15.41, 4.9 14.95 C3.43 14.48, 2.01 13.45, 1.15 12.03 C0.29 10.6, -0.29 7.91, -0.28 6.4 C-0.26 4.89, 0.12 4.18, 1.26 2.96 C2.41 1.75, 5.44 -0.52, 6.59 -0.87 C7.74 -1.21, 8.21 0.73, 8.17 0.9 M9.17 1.99 C10.65 2.23, 11.8 2.23, 12.75 3.65 C13.7 5.07, 14.89 8.81, 14.86 10.49 C14.84 12.18, 13.82 12.83, 12.59 13.75 C11.36 14.68, 9.2 15.85, 7.47 16.03 C5.73 16.21, 3.21 16.17, 2.17 14.82 C1.13 13.47, 1.39 9.97, 1.23 7.94 C1.08 5.9, 0.77 3.69, 1.24 2.6 C1.7 1.51, 2.38 1.56, 4.03 1.41 C5.69 1.26, 10.07 2.03, 11.17 1.71 C12.27 1.38, 10.75 -0.52, 10.64 -0.54" stroke="none" stroke-width="0" fill="#868e96"></path><path d="M10.64 0.31 C11.8 0.95, 12.65 2.21, 13.42 3.95 C14.2 5.68, 15.7 8.92, 15.29 10.7 C14.88 12.48, 12.4 13.95, 10.95 14.64 C9.5 15.32, 8.15 15.02, 6.59 14.79 C5.02 14.57, 2.54 14.46, 1.57 13.31 C0.6 12.15, 0.72 9.69, 0.77 7.87 C0.81 6.06, 0.94 3.7, 1.86 2.41 C2.77 1.13, 4.9 0.26, 6.25 0.16 C7.61 0.06, 9.12 1.7, 9.98 1.83 C10.85 1.96, 11.29 1.08, 11.44 0.96 M7.89 -0.25 C9.75 -0.71, 11.54 -0.96, 12.83 0.38 C14.11 1.72, 15.33 5.76, 15.59 7.81 C15.85 9.85, 15.1 11.15, 14.39 12.64 C13.68 14.13, 13.15 16.53, 11.33 16.76 C9.52 16.99, 5.08 14.97, 3.5 13.99 C1.92 13.01, 2.37 12.17, 1.86 10.9 C1.35 9.63, 0.55 7.88, 0.43 6.37 C0.31 4.86, -0.09 2.79, 1.15 1.85 C2.39 0.91, 7.07 1.24, 7.87 0.72 C8.66 0.21, 6.11 -1.35, 5.9 -1.25" stroke="#000000" stroke-width="1" fill="none"></path></g><g transform="translate(581.7841843832583 243.9591273402978) rotate(0 78.30144839752495 15.31984859951578)"><text x="78.30144839752495" y="21.639697199031513" font-family="Virgil, Segoe UI Emoji" font-size="22.696071999282587px" fill="#000000" text-anchor="middle" style="white-space: pre;" direction="ltr">Relational DB</text></g><g stroke-linecap="round" transform="translate(214.65422345188165 53.238718362749125) rotate(0 115.65153872607493 113.42747067365033)"><path d="M0.19 0.66 L231.82 0.63 L232.19 228.68 L0.35 227.76" stroke="none" stroke-width="0" fill="#eeeeee"></path><path d="M-1 -0.43 C80.25 -0.07, 160.36 2.06, 232.86 0.67 M-0.83 -0.52 C91.57 0.45, 182.03 0.26, 232.06 0.41 M231.63 -0.57 C231.04 88.67, 232.25 177.73, 231.83 227.76 M232.08 0.15 C232.51 74.73, 231.22 150.68, 230.76 227.09 M231.04 227.81 C140.52 228.94, 47.9 228.96, -0.81 226.03 M230.81 226.28 C156.98 226.84, 83.22 227.48, -0.15 226.82 M1.45 227.28 C2.98 138.66, 1.51 49.75, -1.61 1 M-0.23 226.86 C-0.86 180.51, -0.84 136.11, -0.16 -0.71" stroke="#000000" stroke-width="1" fill="none"></path></g><g transform="translate(289.72492348613184 89.0088858010763) rotate(0 41.5 20)"><text x="41.5" y="14" font-family="Virgil, Segoe UI Emoji" font-size="16px" fill="#000000" text-anchor="middle" style="white-space: pre;" direction="ltr">Application</text><text x="41.5" y="34" font-family="Virgil, Segoe UI Emoji" font-size="16px" fill="#000000" text-anchor="middle" style="white-space: pre;" direction="ltr">server</text></g><g stroke-linecap="round" transform="translate(321.05826264339214 143.28292513862357) rotate(0 12.13973147004458 12.819401851145528)"><path d="M3.97 3.45 C3.97 3.45, 3.97 3.45, 3.97 3.45 M3.97 3.45 C3.97 3.45, 3.97 3.45, 3.97 3.45 M0.36 12.44 C7.52 7.67, 11.62 4.18, 13.69 0.36 M2.25 12.22 C3.78 8.86, 7.51 5.87, 12.17 0.47 M1.59 19.04 C8.95 12.22, 14.47 7.02, 14.74 3.71 M2 18.17 C5.01 13.83, 9.45 8.37, 15.19 1.01 M3.95 20.69 C8.26 13.19, 17.22 8.61, 20.92 4.2 M2.99 22.82 C9.32 15.57, 16.46 8.3, 19.74 2.93 M6.63 25.57 C12.89 18.99, 20.18 11.01, 21.62 7.08 M7.42 25.41 C10.42 18.94, 15.85 13.37, 22.46 5.5 M11.25 28.57 C11.92 24.55, 16.8 20.26, 24.58 11.19 M9.03 27.01 C14.99 22.72, 17.56 17.58, 24.97 9.43 M15.55 24.43 C19.11 21.23, 22.33 17.81, 27.29 12.23 M17.62 25.79 C20.4 21.59, 22.42 19.09, 26.78 13.59" stroke="#7950f2" stroke-width="0.5" fill="none"></path><path d="M12.33 -0.4 C14.79 -0.33, 18.99 2.04, 21.09 4.04 C23.19 6.05, 24.55 8.95, 24.9 11.63 C25.26 14.31, 24.71 18, 23.22 20.12 C21.73 22.24, 18.62 23.63, 15.95 24.37 C13.28 25.1, 9.69 25.49, 7.21 24.53 C4.74 23.56, 2.3 20.9, 1.08 18.6 C-0.13 16.29, -0.59 13.27, -0.07 10.7 C0.45 8.13, 1.91 4.78, 4.22 3.17 C6.52 1.57, 11.8 1.49, 13.75 1.09 C15.7 0.69, 15.86 0.6, 15.92 0.8 M12.04 1.3 C14.47 1.19, 17.84 1.97, 19.88 3.26 C21.91 4.54, 23.81 6.34, 24.24 9.02 C24.67 11.7, 23.59 16.86, 22.43 19.33 C21.27 21.81, 19.86 23.03, 17.28 23.87 C14.69 24.71, 9.48 25.08, 6.92 24.38 C4.35 23.68, 2.82 21.75, 1.91 19.67 C1 17.59, 1.03 14.49, 1.47 11.91 C1.9 9.33, 2.87 6.37, 4.53 4.18 C6.18 1.99, 10.27 -0.66, 11.41 -1.22 C12.55 -1.78, 11.03 0.55, 11.36 0.8" stroke="#000000" stroke-width="1" fill="none"></path></g><g stroke-linecap="round" transform="translate(320.7791838425077 179.2646107052659) rotate(0 12.13973147004458 12.819401851145528)"><path d="M5.21 3.2 C5.21 3.2, 5.21 3.2, 5.21 3.2 M5.21 3.2 C5.21 3.2, 5.21 3.2, 5.21 3.2 M4.3 12.13 C7.62 9.14, 9 5.23, 12.56 -0.58 M2.47 11.85 C5.38 8.19, 7.79 5, 13.47 1.15 M0.54 17.42 C8.61 13.93, 13.82 7.52, 17.96 2.16 M1.64 19.4 C6.96 14.26, 10.16 9.05, 16.97 1.52 M5.24 22.69 C11.62 15.68, 13.01 12, 20.48 4.48 M4.09 21.52 C10.61 14.43, 15.83 7.94, 19.87 3.56 M6.39 25.86 C11.36 21.23, 13.51 18.75, 22.18 7.94 M8.32 25.53 C11.69 19.66, 17.42 13.38, 22.14 8.37 M9.99 26.57 C15.16 21.22, 19.37 16.39, 24.19 10.53 M11.41 27.18 C15.75 21.68, 20.5 15.55, 25.09 10.45 M18.06 27.82 C19.06 22.04, 26.25 16.28, 29.07 12.46 M17.41 27.01 C20.83 21.34, 25.44 16.05, 28.09 13.52" stroke="#7950f2" stroke-width="0.5" fill="none"></path><path d="M12.88 0.3 C15.27 0.19, 18.35 1.83, 20.38 3.7 C22.41 5.58, 24.71 8.81, 25.07 11.54 C25.43 14.27, 24.27 17.86, 22.54 20.08 C20.81 22.3, 17.21 24.05, 14.7 24.87 C12.2 25.7, 9.85 26.23, 7.51 25.01 C5.17 23.8, 1.93 20.1, 0.67 17.58 C-0.59 15.05, -0.78 12.22, -0.05 9.85 C0.68 7.49, 2.18 4.82, 5.07 3.37 C7.95 1.92, 14.7 1.27, 17.24 1.17 C19.77 1.07, 20.61 2.7, 20.29 2.8 M13.16 -0.5 C15.36 0.15, 19.77 3.42, 21.42 5.73 C23.06 8.04, 22.89 10.96, 23.04 13.36 C23.2 15.76, 23.78 18.17, 22.34 20.13 C20.89 22.1, 16.87 24.36, 14.38 25.14 C11.89 25.92, 9.68 26.4, 7.41 24.82 C5.15 23.24, 1.99 18.27, 0.78 15.64 C-0.43 13.01, -0.53 11.37, 0.16 9.02 C0.84 6.67, 2.74 3, 4.89 1.55 C7.03 0.1, 11.7 0.41, 13.03 0.32 C14.37 0.23, 12.45 1.01, 12.87 1.01" stroke="#000000" stroke-width="1" fill="none"></path></g><g stroke-linecap="round" transform="translate(320.20044683014805 218.75107986196053) rotate(0 12.13973147004458 12.819401851145528)"><path d="M0.68 8.54 C0.68 8.54, 0.68 8.54, 0.68 8.54 M0.68 8.54 C0.68 8.54, 0.68 8.54, 0.68 8.54 M0.02 16.88 C4.01 11.27, 7.09 8.44, 8.48 4 M-0.25 15.45 C2.67 11.24, 6.05 8.46, 10.22 4.83 M0.53 20.41 C7.66 15.23, 11.85 10.06, 16.96 1.13 M2.51 19.92 C5.08 15.56, 7.59 12.17, 16.32 1.75 M6.19 23.43 C9.02 15.04, 15.18 11.34, 21.19 5.74 M5.02 21.5 C9.99 14.87, 15.57 8.55, 20.26 3.52 M9.01 25.06 C13.7 17.61, 20.56 11.26, 23.53 7.48 M8.68 23.51 C11.69 20.46, 14.31 16.35, 23.96 7.02 M10.76 26.34 C13.37 22.86, 16.51 18.89, 24.45 12.65 M11.37 26.19 C17.35 19.37, 22.69 14.28, 24.37 11.65" stroke="#7950f2" stroke-width="0.5" fill="none"></path><path d="M14.77 0.09 C17.11 0.59, 20.14 3.44, 21.74 5.65 C23.35 7.87, 24.45 10.93, 24.39 13.4 C24.34 15.86, 23.18 18.37, 21.41 20.43 C19.63 22.49, 16.26 25.29, 13.75 25.75 C11.23 26.21, 8.65 24.73, 6.31 23.2 C3.98 21.67, 0.64 19.04, -0.26 16.55 C-1.17 14.07, -0.34 10.67, 0.9 8.29 C2.14 5.9, 4.48 3.36, 7.18 2.25 C9.88 1.14, 15.2 1.73, 17.09 1.62 C18.97 1.51, 18.69 1.43, 18.51 1.58 M17.24 1.49 C19.83 2.59, 23.38 4.18, 24.53 6.91 C25.67 9.64, 25.27 15.02, 24.09 17.87 C22.91 20.71, 19.81 22.47, 17.47 23.98 C15.12 25.49, 12.25 27.35, 10 26.91 C7.75 26.48, 5.88 23.77, 3.97 21.37 C2.06 18.97, -1.37 15.49, -1.48 12.52 C-1.58 9.55, 1.48 5.82, 3.33 3.56 C5.18 1.3, 7.17 -0.48, 9.62 -1.04 C12.08 -1.61, 16.61 -0.56, 18.07 0.15 C19.53 0.86, 18.7 2.86, 18.39 3.2" stroke="#000000" stroke-width="1" fill="none"></path></g><g stroke-linecap="round"><g transform="translate(81.35129103123154 155.75577599919734) rotate(0 109.76118376351269 0.0681162670223614)"><path d="M0.07 -0.97 C36.56 -1.17, 182.08 -0.52, 218.48 -0.36 M-1.35 1.14 C35.58 1.05, 184.42 0.99, 220.87 1.03" stroke="#000000" stroke-width="1" fill="none"></path></g><g transform="translate(81.35129103123154 155.75577599919734) rotate(0 109.76118376351269 0.0681162670223614)"><path d="M191.07 10.28 C199.47 7.52, 207.43 4.51, 220.82 -0.13 M193.65 11.97 C201.11 7.89, 207.62 6.05, 220.17 1.56" stroke="#000000" stroke-width="1" fill="none"></path></g><g transform="translate(81.35129103123154 155.75577599919734) rotate(0 109.76118376351269 0.0681162670223614)"><path d="M191.07 -10.25 C199.62 -7.66, 207.58 -5.33, 220.82 -0.13 M193.65 -8.55 C201.06 -7.21, 207.57 -3.62, 220.17 1.56" stroke="#000000" stroke-width="1" fill="none"></path></g></g><g stroke-linecap="round"><g transform="translate(366.25665717608024 152.9025821059464) rotate(0 92.04668111291335 6.168027929153396)"><path d="M-1.06 0.51 C29.9 2.62, 154.21 10.77, 185.16 12.61 M0.58 -0.27 C31.4 1.5, 152.94 8.69, 184.02 10.84" stroke="#000000" stroke-width="1" fill="none"></path></g><g transform="translate(366.25665717608024 152.9025821059464) rotate(0 92.04668111291335 6.168027929153396)"><path d="M156.08 18.69 C163.55 15.97, 168.94 16.74, 183.19 11.07 M155.54 18.35 C164.11 16.91, 172.98 13.99, 183.84 11.28" stroke="#000000" stroke-width="1" fill="none"></path></g><g transform="translate(366.25665717608024 152.9025821059464) rotate(0 92.04668111291335 6.168027929153396)"><path d="M157.38 -1.79 C164.52 0.59, 169.58 6.47, 183.19 11.07 M156.84 -2.13 C165.05 2.46, 173.55 5.57, 183.84 11.28" stroke="#000000" stroke-width="1" fill="none"></path></g></g><g stroke-linecap="round"><g transform="translate(77.47071719261976 197.09011127753666) rotate(0 110.31533895886815 0.19964425161708732)"><path d="M1.02 0.79 C37.31 0.91, 182.01 1.15, 218.25 0.96 M0.1 0.16 C36.71 -0.06, 184.3 -0.72, 220.53 -0.62" stroke="#000000" stroke-width="1" fill="none"></path></g><g transform="translate(77.47071719261976 197.09011127753666) rotate(0 110.31533895886815 0.19964425161708732)"><path d="M193.68 8.29 C203.83 4.91, 211.38 3.58, 220.03 0.64 M192.41 9.18 C202.95 6.19, 214.11 1.44, 219.71 -1.45" stroke="#000000" stroke-width="1" fill="none"></path></g><g transform="translate(77.47071719261976 197.09011127753666) rotate(0 110.31533895886815 0.19964425161708732)"><path d="M193.65 -12.23 C203.85 -8.49, 211.41 -2.7, 220.03 0.64 M192.38 -11.34 C203.05 -6.21, 214.22 -2.83, 219.71 -1.45" stroke="#000000" stroke-width="1" fill="none"></path></g></g><g stroke-linecap="round"><g transform="translate(80.32693515956487 240.85246354251666) rotate(0 109.32478662195928 -0.5805464569477294)"><path d="M-0.8 0.17 C35.68 0.29, 182.62 0.4, 219.45 0.41 M0.99 -0.79 C37.29 -1, 182.19 -1.87, 218.69 -1.46" stroke="#000000" stroke-width="1" fill="none"></path></g><g transform="translate(80.32693515956487 240.85246354251666) rotate(0 109.32478662195928 -0.5805464569477294)"><path d="M190.77 9.36 C201.15 7.22, 210.65 0.12, 217.49 -2 M190.26 8.91 C201.02 4.82, 212.58 0.96, 219.41 -1.94" stroke="#000000" stroke-width="1" fill="none"></path></g><g transform="translate(80.32693515956487 240.85246354251666) rotate(0 109.32478662195928 -0.5805464569477294)"><path d="M190.8 -11.16 C201.11 -6.14, 210.6 -6.09, 217.49 -2 M190.29 -11.61 C200.93 -7.82, 212.48 -3.81, 219.41 -1.94" stroke="#000000" stroke-width="1" fill="none"></path></g></g><g stroke-linecap="round"><g transform="translate(363.0765098607409 192.28745024126658) rotate(0 93.89894015549942 0.3133605286953127)"><path d="M-0.32 -1.14 C30.87 -0.87, 156.65 0.24, 188.12 0.53 M1.71 0.88 C32.65 1.4, 156.13 1.64, 187.16 1.76" stroke="#000000" stroke-width="1" fill="none"></path></g><g transform="translate(363.0765098607409 192.28745024126658) rotate(0 93.89894015549942 0.3133605286953127)"><path d="M157.04 11.9 C168.9 8.68, 179.81 4.71, 187.39 0.85 M159.91 11.94 C164.77 9.81, 172.31 7.15, 186.96 2.57" stroke="#000000" stroke-width="1" fill="none"></path></g><g transform="translate(363.0765098607409 192.28745024126658) rotate(0 93.89894015549942 0.3133605286953127)"><path d="M157.11 -8.62 C168.76 -3.97, 179.64 -0.06, 187.39 0.85 M159.98 -8.58 C164.83 -5.84, 172.35 -3.63, 186.96 2.57" stroke="#000000" stroke-width="1" fill="none"></path></g></g><g stroke-linecap="round"><g transform="translate(363.96857232672494 231.44472737586545) rotate(0 92.79286528728278 -4.759468056661262)"><path d="M0.56 -0.19 C31.61 -1.38, 155.04 -6.14, 186.18 -7.62 M-0.6 -1.33 C30.25 -2.82, 153.73 -8.2, 185.01 -9.33" stroke="#000000" stroke-width="1" fill="none"></path></g><g transform="translate(363.96857232672494 231.44472737586545) rotate(0 92.79286528728278 -4.759468056661262)"><path d="M156.94 1.34 C166.78 -0.1, 172.51 -5.85, 186.28 -9.65 M157.03 1.13 C164.02 -0.19, 168.54 -2.22, 185.7 -8.73" stroke="#000000" stroke-width="1" fill="none"></path></g><g transform="translate(363.96857232672494 231.44472737586545) rotate(0 92.79286528728278 -4.759468056661262)"><path d="M156.11 -19.16 C166.12 -14.57, 172.08 -14.28, 186.28 -9.65 M156.2 -19.38 C163.29 -16.23, 167.99 -13.8, 185.7 -8.73" stroke="#000000" stroke-width="1" fill="none"></path></g></g><g transform="translate(36.717134283524274 150.20719974406848) rotate(0 12.339917821909467 6.706477077124703)"><text x="0" y="9.412954154249412" font-family="Virgil, Segoe UI Emoji" font-size="10.73036332339953px" fill="#000000" text-anchor="start" style="white-space: pre;" direction="ltr">User</text></g><g stroke-linecap="round"><g transform="translate(35.221739772475985 145.02822958302022) rotate(0 13.852708695273918 -11.693788634568108)" fill-rule="evenodd"><path d="M7.63 -21.19 C7.63 -21.19, 7.63 -21.19, 7.63 -21.19 M7.63 -21.19 C7.63 -21.19, 7.63 -21.19, 7.63 -21.19 M3.83 -4.62 C9.26 -10.88, 14.7 -17.14, 18.26 -21.23 M3.83 -4.62 C7.34 -8.66, 10.85 -12.71, 18.26 -21.23 M5.93 5.15 C9.96 0.51, 13.99 -4.12, 24.3 -15.98 M5.93 5.15 C11.54 -1.31, 17.16 -7.77, 24.3 -15.98 M16.56 5.12 C19.4 1.84, 22.25 -1.43, 27.71 -7.71 M16.56 5.12 C20.11 1.02, 23.67 -3.07, 27.71 -7.71 M0 0 C0 0, 0 0, 0 0 M0 0 C0 0, 0 0, 0 0 M12.04 -0.13 C9.85 -2.04, 7.66 -3.94, 2.23 -8.66 M12.04 -0.13 C8.2 -3.47, 4.36 -6.81, 2.23 -8.66 M22.57 -1.58 C18.48 -5.13, 14.4 -8.69, 4.46 -17.32 M22.57 -1.58 C17.46 -6.03, 12.34 -10.47, 4.46 -17.32 M29.33 -6.3 C23.12 -11.71, 16.9 -17.11, 9.71 -23.36 M29.33 -6.3 C22.81 -11.98, 16.28 -17.65, 9.71 -23.36" stroke="#ced4da" stroke-width="1" fill="none"></path><path d="M0 0 C0.49 -2.6, 0.85 -11.67, 2.96 -15.6 C5.08 -19.52, 9.45 -23.26, 12.69 -23.54 C15.93 -23.82, 20.13 -20.95, 22.42 -17.3 C24.71 -13.65, 30.17 -4.5, 26.43 -1.62 C22.7 1.26, 4.41 -0.27, 0 0 M0 0 C0.49 -2.6, 0.85 -11.67, 2.96 -15.6 C5.08 -19.52, 9.45 -23.26, 12.69 -23.54 C15.93 -23.82, 20.13 -20.95, 22.42 -17.3 C24.71 -13.65, 30.17 -4.5, 26.43 -1.62 C22.7 1.26, 4.41 -0.27, 0 0" stroke="#000000" stroke-width="2" fill="none"></path></g></g><g stroke-linecap="round" transform="translate(41.9034677152938 109.24727092499825) rotate(0 6.767088448499749 5.921202392437323)"><path d="M1.29 2.45 C1.29 2.45, 1.29 2.45, 1.29 2.45 M1.29 2.45 C1.29 2.45, 1.29 2.45, 1.29 2.45 M4.05 11.47 C5.77 9.49, 7.49 7.52, 11.92 2.41 M4.05 11.47 C7.02 8.06, 9.98 4.65, 11.92 2.41 M2.66 10.66 C2.66 10.66, 2.66 10.66, 2.66 10.66 M2.66 10.66 C2.66 10.66, 2.66 10.66, 2.66 10.66 M12.43 8.56 C9.66 6.16, 6.89 3.75, 3.38 0.69 M12.43 8.56 C10.12 6.55, 7.81 4.55, 3.38 0.69" stroke="#ced4da" stroke-width="1" fill="none"></path><path d="M13.53 5.92 C13.53 6.26, 13.5 6.61, 13.43 6.95 C13.36 7.29, 13.26 7.62, 13.13 7.95 C12.99 8.27, 12.82 8.58, 12.63 8.88 C12.43 9.18, 12.2 9.46, 11.95 9.73 C11.7 9.99, 11.42 10.24, 11.12 10.46 C10.82 10.68, 10.49 10.88, 10.15 11.05 C9.81 11.22, 9.45 11.37, 9.08 11.49 C8.71 11.6, 8.33 11.69, 7.94 11.75 C7.56 11.81, 7.16 11.84, 6.77 11.84 C6.38 11.84, 5.98 11.81, 5.59 11.75 C5.21 11.69, 4.82 11.6, 4.45 11.49 C4.08 11.37, 3.72 11.22, 3.38 11.05 C3.04 10.88, 2.72 10.68, 2.42 10.46 C2.12 10.24, 1.83 9.99, 1.58 9.73 C1.33 9.46, 1.1 9.18, 0.91 8.88 C0.71 8.58, 0.54 8.27, 0.41 7.95 C0.27 7.62, 0.17 7.29, 0.1 6.95 C0.03 6.61, 0 6.26, 0 5.92 C0 5.58, 0.03 5.23, 0.1 4.89 C0.17 4.56, 0.27 4.22, 0.41 3.9 C0.54 3.57, 0.71 3.26, 0.91 2.96 C1.1 2.66, 1.33 2.38, 1.58 2.12 C1.83 1.85, 2.12 1.61, 2.42 1.39 C2.72 1.16, 3.04 0.96, 3.38 0.79 C3.72 0.62, 4.08 0.47, 4.45 0.36 C4.82 0.24, 5.21 0.15, 5.59 0.09 C5.98 0.03, 6.38 0, 6.77 0 C7.16 0, 7.56 0.03, 7.94 0.09 C8.33 0.15, 8.71 0.24, 9.08 0.36 C9.45 0.47, 9.81 0.62, 10.15 0.79 C10.49 0.96, 10.82 1.16, 11.12 1.39 C11.42 1.61, 11.7 1.85, 11.95 2.12 C12.2 2.38, 12.43 2.66, 12.63 2.96 C12.82 3.26, 12.99 3.57, 13.13 3.9 C13.26 4.22, 13.36 4.56, 13.43 4.89 C13.5 5.23, 13.52 5.75, 13.53 5.92 C13.55 6.09, 13.55 5.75, 13.53 5.92" stroke="#000000" stroke-width="2" fill="none"></path></g><g transform="translate(11.49539451104829 222.9330694587162) rotate(0 12.339917821909467 6.706477077124703)"><text x="0" y="9.412954154249412" font-family="Virgil, Segoe UI Emoji" font-size="10.73036332339953px" fill="#000000" text-anchor="start" style="white-space: pre;" direction="ltr">User</text></g><g stroke-linecap="round"><g transform="translate(10 217.75409929766795) rotate(0 13.852708695273918 -11.693788634568108)" fill-rule="evenodd"><path d="M7.63 -21.19 C7.63 -21.19, 7.63 -21.19, 7.63 -21.19 M7.63 -21.19 C7.63 -21.19, 7.63 -21.19, 7.63 -21.19 M3.83 -4.62 C8.8 -10.34, 13.77 -16.06, 18.26 -21.23 M3.83 -4.62 C9.19 -10.8, 14.56 -16.98, 18.26 -21.23 M5.93 5.15 C9.83 0.66, 13.74 -3.84, 24.3 -15.98 M5.93 5.15 C9.88 0.6, 13.83 -3.94, 24.3 -15.98 M16.56 5.12 C20.79 0.25, 25.02 -4.62, 27.71 -7.71 M16.56 5.12 C20.1 1.04, 23.65 -3.04, 27.71 -7.71 M0 0 C0 0, 0 0, 0 0 M0 0 C0 0, 0 0, 0 0 M12.04 -0.13 C8.99 -2.79, 5.93 -5.44, 2.23 -8.66 M12.04 -0.13 C8.34 -3.35, 4.63 -6.57, 2.23 -8.66 M22.57 -1.58 C17.06 -6.37, 11.55 -11.16, 4.46 -17.32 M22.57 -1.58 C18.73 -4.92, 14.88 -8.27, 4.46 -17.32 M29.33 -6.3 C21.57 -13.05, 13.82 -19.79, 9.71 -23.36 M29.33 -6.3 C25.03 -10.04, 20.73 -13.78, 9.71 -23.36" stroke="#ced4da" stroke-width="1" fill="none"></path><path d="M0 0 C0.49 -2.6, 0.85 -11.67, 2.96 -15.6 C5.08 -19.52, 9.45 -23.26, 12.69 -23.54 C15.93 -23.82, 20.13 -20.95, 22.42 -17.3 C24.71 -13.65, 30.17 -4.5, 26.43 -1.62 C22.7 1.26, 4.41 -0.27, 0 0 M0 0 C0.49 -2.6, 0.85 -11.67, 2.96 -15.6 C5.08 -19.52, 9.45 -23.26, 12.69 -23.54 C15.93 -23.82, 20.13 -20.95, 22.42 -17.3 C24.71 -13.65, 30.17 -4.5, 26.43 -1.62 C22.7 1.26, 4.41 -0.27, 0 0" stroke="#000000" stroke-width="2" fill="none"></path></g></g><g stroke-linecap="round" transform="translate(16.681727942817815 181.97314063964598) rotate(0 6.767088448499749 5.921202392437323)"><path d="M1.29 2.45 C1.29 2.45, 1.29 2.45, 1.29 2.45 M1.29 2.45 C1.29 2.45, 1.29 2.45, 1.29 2.45 M4.05 11.47 C6 9.23, 7.94 6.99, 11.92 2.41 M4.05 11.47 C6.76 8.35, 9.47 5.23, 11.92 2.41 M2.66 10.66 C2.66 10.66, 2.66 10.66, 2.66 10.66 M2.66 10.66 C2.66 10.66, 2.66 10.66, 2.66 10.66 M12.43 8.56 C10.48 6.87, 8.53 5.17, 3.38 0.69 M12.43 8.56 C9 5.58, 5.56 2.59, 3.38 0.69" stroke="#ced4da" stroke-width="1" fill="none"></path><path d="M13.53 5.92 C13.53 6.26, 13.5 6.61, 13.43 6.95 C13.36 7.29, 13.26 7.62, 13.13 7.95 C12.99 8.27, 12.82 8.58, 12.63 8.88 C12.43 9.18, 12.2 9.46, 11.95 9.73 C11.7 9.99, 11.42 10.24, 11.12 10.46 C10.82 10.68, 10.49 10.88, 10.15 11.05 C9.81 11.22, 9.45 11.37, 9.08 11.49 C8.71 11.6, 8.33 11.69, 7.94 11.75 C7.56 11.81, 7.16 11.84, 6.77 11.84 C6.38 11.84, 5.98 11.81, 5.59 11.75 C5.21 11.69, 4.82 11.6, 4.45 11.49 C4.08 11.37, 3.72 11.22, 3.38 11.05 C3.04 10.88, 2.72 10.68, 2.42 10.46 C2.12 10.24, 1.83 9.99, 1.58 9.73 C1.33 9.46, 1.1 9.18, 0.91 8.88 C0.71 8.58, 0.54 8.27, 0.41 7.95 C0.27 7.62, 0.17 7.29, 0.1 6.95 C0.03 6.61, 0 6.26, 0 5.92 C0 5.58, 0.03 5.23, 0.1 4.89 C0.17 4.56, 0.27 4.22, 0.41 3.9 C0.54 3.57, 0.71 3.26, 0.91 2.96 C1.1 2.66, 1.33 2.38, 1.58 2.12 C1.83 1.85, 2.12 1.61, 2.42 1.39 C2.72 1.16, 3.04 0.96, 3.38 0.79 C3.72 0.62, 4.08 0.47, 4.45 0.36 C4.82 0.24, 5.21 0.15, 5.59 0.09 C5.98 0.03, 6.38 0, 6.77 0 C7.16 0, 7.56 0.03, 7.94 0.09 C8.33 0.15, 8.71 0.24, 9.08 0.36 C9.45 0.47, 9.81 0.62, 10.15 0.79 C10.49 0.96, 10.82 1.16, 11.12 1.39 C11.42 1.61, 11.7 1.85, 11.95 2.12 C12.2 2.38, 12.43 2.66, 12.63 2.96 C12.82 3.26, 12.99 3.57, 13.13 3.9 C13.26 4.22, 13.36 4.56, 13.43 4.89 C13.5 5.23, 13.52 5.75, 13.53 5.92 C13.55 6.09, 13.55 5.75, 13.53 5.92" stroke="#000000" stroke-width="2" fill="none"></path></g><g transform="translate(42.23608545055754 288.19187284444115) rotate(0 12.339917821909467 6.706477077124703)"><text x="0" y="9.412954154249412" font-family="Virgil, Segoe UI Emoji" font-size="10.73036332339953px" fill="#000000" text-anchor="start" style="white-space: pre;" direction="ltr">User</text></g><g stroke-linecap="round"><g transform="translate(40.74069093950925 283.0129026833929) rotate(0 13.852708695273918 -11.693788634568136)" fill-rule="evenodd"><path d="M7.63 -21.19 C7.63 -21.19, 7.63 -21.19, 7.63 -21.19 M7.63 -21.19 C7.63 -21.19, 7.63 -21.19, 7.63 -21.19 M3.83 -4.62 C6.89 -8.15, 9.96 -11.68, 18.26 -21.23 M3.83 -4.62 C9.53 -11.19, 15.23 -17.75, 18.26 -21.23 M5.93 5.15 C9.95 0.52, 13.98 -4.11, 24.3 -15.98 M5.93 5.15 C12.77 -2.72, 19.61 -10.59, 24.3 -15.98 M16.56 5.12 C18.83 2.5, 21.11 -0.12, 27.71 -7.71 M16.56 5.12 C19.38 1.87, 22.21 -1.39, 27.71 -7.71 M0 0 C0 0, 0 0, 0 0 M0 0 C0 0, 0 0, 0 0 M12.04 -0.13 C8.65 -3.08, 5.26 -6.03, 2.23 -8.66 M12.04 -0.13 C8.36 -3.34, 4.67 -6.54, 2.23 -8.66 M22.57 -1.58 C16.89 -6.52, 11.21 -11.46, 4.46 -17.32 M22.57 -1.58 C17.24 -6.22, 11.9 -10.86, 4.46 -17.32 M29.33 -6.3 C24.66 -10.37, 19.98 -14.43, 9.71 -23.36 M29.33 -6.3 C25.06 -10.02, 20.78 -13.74, 9.71 -23.36" stroke="#ced4da" stroke-width="1" fill="none"></path><path d="M0 0 C0.49 -2.6, 0.85 -11.67, 2.96 -15.6 C5.08 -19.52, 9.45 -23.26, 12.69 -23.54 C15.93 -23.82, 20.13 -20.95, 22.42 -17.3 C24.71 -13.65, 30.17 -4.5, 26.43 -1.62 C22.7 1.26, 4.41 -0.27, 0 0 M0 0 C0.49 -2.6, 0.85 -11.67, 2.96 -15.6 C5.08 -19.52, 9.45 -23.26, 12.69 -23.54 C15.93 -23.82, 20.13 -20.95, 22.42 -17.3 C24.71 -13.65, 30.17 -4.5, 26.43 -1.62 C22.7 1.26, 4.41 -0.27, 0 0" stroke="#000000" stroke-width="2" fill="none"></path></g></g><g stroke-linecap="round" transform="translate(47.422418882327065 247.23194402537092) rotate(0 6.767088448499749 5.921202392437294)"><path d="M1.29 2.45 C1.29 2.45, 1.29 2.45, 1.29 2.45 M1.29 2.45 C1.29 2.45, 1.29 2.45, 1.29 2.45 M4.05 11.47 C6.45 8.71, 8.84 5.96, 11.92 2.41 M4.05 11.47 C5.72 9.55, 7.39 7.62, 11.92 2.41 M2.66 10.66 C2.66 10.66, 2.66 10.66, 2.66 10.66 M2.66 10.66 C2.66 10.66, 2.66 10.66, 2.66 10.66 M12.43 8.56 C9.06 5.63, 5.69 2.7, 3.38 0.69 M12.43 8.56 C10.58 6.96, 8.74 5.35, 3.38 0.69" stroke="#ced4da" stroke-width="1" fill="none"></path><path d="M13.53 5.92 C13.53 6.26, 13.5 6.61, 13.43 6.95 C13.36 7.29, 13.26 7.62, 13.13 7.95 C12.99 8.27, 12.82 8.58, 12.63 8.88 C12.43 9.18, 12.2 9.46, 11.95 9.73 C11.7 9.99, 11.42 10.24, 11.12 10.46 C10.82 10.68, 10.49 10.88, 10.15 11.05 C9.81 11.22, 9.45 11.37, 9.08 11.49 C8.71 11.6, 8.33 11.69, 7.94 11.75 C7.56 11.81, 7.16 11.84, 6.77 11.84 C6.38 11.84, 5.98 11.81, 5.59 11.75 C5.21 11.69, 4.82 11.6, 4.45 11.49 C4.08 11.37, 3.72 11.22, 3.38 11.05 C3.04 10.88, 2.72 10.68, 2.42 10.46 C2.12 10.24, 1.83 9.99, 1.58 9.73 C1.33 9.46, 1.1 9.18, 0.91 8.88 C0.71 8.58, 0.54 8.27, 0.41 7.95 C0.27 7.62, 0.17 7.29, 0.1 6.95 C0.03 6.61, 0 6.26, 0 5.92 C0 5.58, 0.03 5.23, 0.1 4.89 C0.17 4.56, 0.27 4.22, 0.41 3.9 C0.54 3.57, 0.71 3.26, 0.91 2.96 C1.1 2.66, 1.33 2.38, 1.58 2.12 C1.83 1.85, 2.12 1.61, 2.42 1.39 C2.72 1.16, 3.04 0.96, 3.38 0.79 C3.72 0.62, 4.08 0.47, 4.45 0.36 C4.82 0.24, 5.21 0.15, 5.59 0.09 C5.98 0.03, 6.38 0, 6.77 0 C7.16 0, 7.56 0.03, 7.94 0.09 C8.33 0.15, 8.71 0.24, 9.08 0.36 C9.45 0.47, 9.81 0.62, 10.15 0.79 C10.49 0.96, 10.82 1.16, 11.12 1.39 C11.42 1.61, 11.7 1.85, 11.95 2.12 C12.2 2.38, 12.43 2.66, 12.63 2.96 C12.82 3.26, 12.99 3.57, 13.13 3.9 C13.26 4.22, 13.36 4.56, 13.43 4.89 C13.5 5.23, 13.52 5.75, 13.53 5.92 C13.55 6.09, 13.55 5.75, 13.53 5.92" stroke="#000000" stroke-width="2" fill="none"></path></g><g transform="translate(33.85622015032129 50.95992881907023) rotate(0 12.339917821909467 6.706477077124703)"><text x="0" y="9.412954154249412" font-family="Virgil, Segoe UI Emoji" font-size="10.73036332339953px" fill="#000000" text-anchor="start" style="white-space: pre;" direction="ltr">User</text></g><g stroke-linecap="round"><g transform="translate(32.360825639273 45.78095865802197) rotate(0 13.852708695273918 -11.693788634568108)" fill-rule="evenodd"><path d="M7.63 -21.19 C7.63 -21.19, 7.63 -21.19, 7.63 -21.19 M7.63 -21.19 C7.63 -21.19, 7.63 -21.19, 7.63 -21.19 M3.83 -4.62 C9.2 -10.81, 14.58 -17, 18.26 -21.23 M3.83 -4.62 C6.86 -8.11, 9.89 -11.6, 18.26 -21.23 M5.93 5.15 C10.6 -0.23, 15.28 -5.6, 24.3 -15.98 M5.93 5.15 C13.15 -3.16, 20.38 -11.48, 24.3 -15.98 M16.56 5.12 C19.79 1.4, 23.02 -2.32, 27.71 -7.71 M16.56 5.12 C20.3 0.81, 24.05 -3.5, 27.71 -7.71 M0 0 C0 0, 0 0, 0 0 M0 0 C0 0, 0 0, 0 0 M12.04 -0.13 C9.96 -1.94, 7.87 -3.76, 2.23 -8.66 M12.04 -0.13 C8.51 -3.2, 4.98 -6.27, 2.23 -8.66 M22.57 -1.58 C18.44 -5.17, 14.3 -8.77, 4.46 -17.32 M22.57 -1.58 C17.93 -5.61, 13.29 -9.65, 4.46 -17.32 M29.33 -6.3 C21.51 -13.1, 13.68 -19.9, 9.71 -23.36 M29.33 -6.3 C23.49 -11.38, 17.65 -16.45, 9.71 -23.36" stroke="#ced4da" stroke-width="1" fill="none"></path><path d="M0 0 C0.49 -2.6, 0.85 -11.67, 2.96 -15.6 C5.08 -19.52, 9.45 -23.26, 12.69 -23.54 C15.93 -23.82, 20.13 -20.95, 22.42 -17.3 C24.71 -13.65, 30.17 -4.5, 26.43 -1.62 C22.7 1.26, 4.41 -0.27, 0 0 M0 0 C0.49 -2.6, 0.85 -11.67, 2.96 -15.6 C5.08 -19.52, 9.45 -23.26, 12.69 -23.54 C15.93 -23.82, 20.13 -20.95, 22.42 -17.3 C24.71 -13.65, 30.17 -4.5, 26.43 -1.62 C22.7 1.26, 4.41 -0.27, 0 0" stroke="#000000" stroke-width="2" fill="none"></path></g></g><g stroke-linecap="round" transform="translate(39.04255358209082 10) rotate(0 6.767088448499749 5.921202392437323)"><path d="M1.29 2.45 C1.29 2.45, 1.29 2.45, 1.29 2.45 M1.29 2.45 C1.29 2.45, 1.29 2.45, 1.29 2.45 M4.05 11.47 C6.57 8.57, 9.09 5.67, 11.92 2.41 M4.05 11.47 C6.98 8.1, 9.92 4.72, 11.92 2.41 M2.66 10.66 C2.66 10.66, 2.66 10.66, 2.66 10.66 M2.66 10.66 C2.66 10.66, 2.66 10.66, 2.66 10.66 M12.43 8.56 C8.87 5.47, 5.31 2.37, 3.38 0.69 M12.43 8.56 C9.81 6.28, 7.18 4, 3.38 0.69" stroke="#ced4da" stroke-width="1" fill="none"></path><path d="M13.53 5.92 C13.53 6.26, 13.5 6.61, 13.43 6.95 C13.36 7.29, 13.26 7.62, 13.13 7.95 C12.99 8.27, 12.82 8.58, 12.63 8.88 C12.43 9.18, 12.2 9.46, 11.95 9.73 C11.7 9.99, 11.42 10.24, 11.12 10.46 C10.82 10.68, 10.49 10.88, 10.15 11.05 C9.81 11.22, 9.45 11.37, 9.08 11.49 C8.71 11.6, 8.33 11.69, 7.94 11.75 C7.56 11.81, 7.16 11.84, 6.77 11.84 C6.38 11.84, 5.98 11.81, 5.59 11.75 C5.21 11.69, 4.82 11.6, 4.45 11.49 C4.08 11.37, 3.72 11.22, 3.38 11.05 C3.04 10.88, 2.72 10.68, 2.42 10.46 C2.12 10.24, 1.83 9.99, 1.58 9.73 C1.33 9.46, 1.1 9.18, 0.91 8.88 C0.71 8.58, 0.54 8.27, 0.41 7.95 C0.27 7.62, 0.17 7.29, 0.1 6.95 C0.03 6.61, 0 6.26, 0 5.92 C0 5.58, 0.03 5.23, 0.1 4.89 C0.17 4.56, 0.27 4.22, 0.41 3.9 C0.54 3.57, 0.71 3.26, 0.91 2.96 C1.1 2.66, 1.33 2.38, 1.58 2.12 C1.83 1.85, 2.12 1.61, 2.42 1.39 C2.72 1.16, 3.04 0.96, 3.38 0.79 C3.72 0.62, 4.08 0.47, 4.45 0.36 C4.82 0.24, 5.21 0.15, 5.59 0.09 C5.98 0.03, 6.38 0, 6.77 0 C7.16 0, 7.56 0.03, 7.94 0.09 C8.33 0.15, 8.71 0.24, 9.08 0.36 C9.45 0.47, 9.81 0.62, 10.15 0.79 C10.49 0.96, 10.82 1.16, 11.12 1.39 C11.42 1.61, 11.7 1.85, 11.95 2.12 C12.2 2.38, 12.43 2.66, 12.63 2.96 C12.82 3.26, 12.99 3.57, 13.13 3.9 C13.26 4.22, 13.36 4.56, 13.43 4.89 C13.5 5.23, 13.52 5.75, 13.53 5.92 C13.55 6.09, 13.55 5.75, 13.53 5.92" stroke="#000000" stroke-width="2" fill="none"></path></g><g transform="translate(48.43060585965907 406.21679554472723) rotate(0 12.339917821909467 6.706477077124703)"><text x="0" y="9.412954154249412" font-family="Virgil, Segoe UI Emoji" font-size="10.73036332339953px" fill="#000000" text-anchor="start" style="white-space: pre;" direction="ltr">User</text></g><g stroke-linecap="round"><g transform="translate(46.93521134861078 401.037825383679) rotate(0 13.852708695273918 -11.693788634568136)" fill-rule="evenodd"><path d="M7.63 -21.19 C7.63 -21.19, 7.63 -21.19, 7.63 -21.19 M7.63 -21.19 C7.63 -21.19, 7.63 -21.19, 7.63 -21.19 M3.83 -4.62 C6.79 -8.04, 9.76 -11.45, 18.26 -21.23 M3.83 -4.62 C9.15 -10.75, 14.48 -16.88, 18.26 -21.23 M5.93 5.15 C10.98 -0.66, 16.03 -6.48, 24.3 -15.98 M5.93 5.15 C9.91 0.57, 13.89 -4.01, 24.3 -15.98 M16.56 5.12 C18.98 2.33, 21.4 -0.45, 27.71 -7.71 M16.56 5.12 C20.09 1.05, 23.63 -3.02, 27.71 -7.71 M0 0 C0 0, 0 0, 0 0 M0 0 C0 0, 0 0, 0 0 M12.04 -0.13 C8.36 -3.34, 4.67 -6.54, 2.23 -8.66 M12.04 -0.13 C9.68 -2.18, 7.32 -4.23, 2.23 -8.66 M22.57 -1.58 C17.29 -6.17, 12.01 -10.76, 4.46 -17.32 M22.57 -1.58 C15.82 -7.45, 9.07 -13.32, 4.46 -17.32 M29.33 -6.3 C24.74 -10.3, 20.15 -14.29, 9.71 -23.36 M29.33 -6.3 C23.06 -11.75, 16.8 -17.2, 9.71 -23.36" stroke="#ced4da" stroke-width="1" fill="none"></path><path d="M0 0 C0.49 -2.6, 0.85 -11.67, 2.96 -15.6 C5.08 -19.52, 9.45 -23.26, 12.69 -23.54 C15.93 -23.82, 20.13 -20.95, 22.42 -17.3 C24.71 -13.65, 30.17 -4.5, 26.43 -1.62 C22.7 1.26, 4.41 -0.27, 0 0 M0 0 C0.49 -2.6, 0.85 -11.67, 2.96 -15.6 C5.08 -19.52, 9.45 -23.26, 12.69 -23.54 C15.93 -23.82, 20.13 -20.95, 22.42 -17.3 C24.71 -13.65, 30.17 -4.5, 26.43 -1.62 C22.7 1.26, 4.41 -0.27, 0 0" stroke="#000000" stroke-width="2" fill="none"></path></g></g><g stroke-linecap="round" transform="translate(53.616939291428594 365.256866725657) rotate(0 6.767088448499749 5.921202392437294)"><path d="M1.29 2.45 C1.29 2.45, 1.29 2.45, 1.29 2.45 M1.29 2.45 C1.29 2.45, 1.29 2.45, 1.29 2.45 M4.05 11.47 C6.51 8.64, 8.97 5.81, 11.92 2.41 M4.05 11.47 C5.67 9.61, 7.29 7.75, 11.92 2.41 M2.66 10.66 C2.66 10.66, 2.66 10.66, 2.66 10.66 M2.66 10.66 C2.66 10.66, 2.66 10.66, 2.66 10.66 M12.43 8.56 C10.47 6.86, 8.51 5.15, 3.38 0.69 M12.43 8.56 C10.47 6.85, 8.5 5.15, 3.38 0.69" stroke="#ced4da" stroke-width="1" fill="none"></path><path d="M13.53 5.92 C13.53 6.26, 13.5 6.61, 13.43 6.95 C13.36 7.29, 13.26 7.62, 13.13 7.95 C12.99 8.27, 12.82 8.58, 12.63 8.88 C12.43 9.18, 12.2 9.46, 11.95 9.73 C11.7 9.99, 11.42 10.24, 11.12 10.46 C10.82 10.68, 10.49 10.88, 10.15 11.05 C9.81 11.22, 9.45 11.37, 9.08 11.49 C8.71 11.6, 8.33 11.69, 7.94 11.75 C7.56 11.81, 7.16 11.84, 6.77 11.84 C6.38 11.84, 5.98 11.81, 5.59 11.75 C5.21 11.69, 4.82 11.6, 4.45 11.49 C4.08 11.37, 3.72 11.22, 3.38 11.05 C3.04 10.88, 2.72 10.68, 2.42 10.46 C2.12 10.24, 1.83 9.99, 1.58 9.73 C1.33 9.46, 1.1 9.18, 0.91 8.88 C0.71 8.58, 0.54 8.27, 0.41 7.95 C0.27 7.62, 0.17 7.29, 0.1 6.95 C0.03 6.61, 0 6.26, 0 5.92 C0 5.58, 0.03 5.23, 0.1 4.89 C0.17 4.56, 0.27 4.22, 0.41 3.9 C0.54 3.57, 0.71 3.26, 0.91 2.96 C1.1 2.66, 1.33 2.38, 1.58 2.12 C1.83 1.85, 2.12 1.61, 2.42 1.39 C2.72 1.16, 3.04 0.96, 3.38 0.79 C3.72 0.62, 4.08 0.47, 4.45 0.36 C4.82 0.24, 5.21 0.15, 5.59 0.09 C5.98 0.03, 6.38 0, 6.77 0 C7.16 0, 7.56 0.03, 7.94 0.09 C8.33 0.15, 8.71 0.24, 9.08 0.36 C9.45 0.47, 9.81 0.62, 10.15 0.79 C10.49 0.96, 10.82 1.16, 11.12 1.39 C11.42 1.61, 11.7 1.85, 11.95 2.12 C12.2 2.38, 12.43 2.66, 12.63 2.96 C12.82 3.26, 12.99 3.57, 13.13 3.9 C13.26 4.22, 13.36 4.56, 13.43 4.89 C13.5 5.23, 13.52 5.75, 13.53 5.92 C13.55 6.09, 13.55 5.75, 13.53 5.92" stroke="#000000" stroke-width="2" fill="none"></path></g><g stroke-linecap="round"><g transform="translate(88.52961723292401 45.27061521753819) rotate(0 97.51670225550362 44.47043670876707)"><path d="M-0.6 -0.04 C32.08 15.05, 162.97 75.1, 195.64 90.05 M1.28 -1.11 C33.87 13.71, 162.63 73.65, 194.87 88.45" stroke="#a61e4d" stroke-width="1" fill="none"></path></g><g transform="translate(88.52961723292401 45.27061521753819) rotate(0 97.51670225550362 44.47043670876707)"><path d="M164.9 86.49 C174.46 86.95, 181.73 89, 196.32 86.92 M164.16 85.33 C175.03 86.18, 185.56 88.54, 194.21 87.74" stroke="#a61e4d" stroke-width="1" fill="none"></path></g><g transform="translate(88.52961723292401 45.27061521753819) rotate(0 97.51670225550362 44.47043670876707)"><path d="M173.52 67.87 C180.73 73.18, 185.74 80.11, 196.32 86.92 M172.77 66.71 C180.63 73.87, 188.21 82.62, 194.21 87.74" stroke="#a61e4d" stroke-width="1" fill="none"></path></g></g><g stroke-linecap="round"><g transform="translate(97.55467061941533 389.00165706983285) rotate(0 104.37345034717077 -63.39012779205274)"><path d="M0.5 0.18 C35.6 -20.85, 174.45 -105.91, 209.44 -126.96 M-0.69 -0.78 C34.32 -21.54, 173.2 -104.26, 208.33 -125.47" stroke="#a61e4d" stroke-width="1" fill="none"></path></g><g transform="translate(97.55467061941533 389.00165706983285) rotate(0 104.37345034717077 -63.39012779205274)"><path d="M189.71 -102.68 C193.32 -105.87, 198.69 -111.17, 208.9 -126.67 M189.24 -101.54 C194.73 -108.97, 200.96 -116.2, 209.13 -126.17" stroke="#a61e4d" stroke-width="1" fill="none"></path></g><g transform="translate(97.55467061941533 389.00165706983285) rotate(0 104.37345034717077 -63.39012779205274)"><path d="M179.17 -120.29 C184.83 -119.89, 192.38 -121.55, 208.9 -126.67 M178.69 -119.15 C187.3 -121.27, 196.76 -123.1, 209.13 -126.17" stroke="#a61e4d" stroke-width="1" fill="none"></path></g></g><g transform="translate(329.12060518282817 336.33503441041944) rotate(0 315 37.5)"><text x="315" y="18" font-family="Virgil, Segoe UI Emoji" font-size="20px" fill="#a61e4d" text-anchor="middle" style="white-space: pre;" direction="ltr">Pink users are now waiting for the thread to complete the I/O</text><text x="315" y="43" font-family="Virgil, Segoe UI Emoji" font-size="20px" fill="#a61e4d" text-anchor="middle" style="white-space: pre;" direction="ltr">operation with the DB. The requests are async - still it</text><text x="315" y="68" font-family="Virgil, Segoe UI Emoji" font-size="20px" fill="#a61e4d" text-anchor="middle" style="white-space: pre;" direction="ltr">must wait for the </text></g></svg>